P3
# Created by GIMP version 2.10.34 PNM plug-in
64 64
255
56
56
56
56
56
56
56
56
56
56
56
56
56
56
56
56
56
56
56
56
56
56
56
56
56
56
56
56
56
56
56
56
56
56
56
56
56
56
56
56
56
56
56
56
56
56
56
56
56
56
56
56
56
56
56
56
56
56
56
56
56
56
56
56
56
56
56
56
56
56
56
56
56
56
56
56
56
56
56
56
56
56
56
56
56
56
56
56
56
56
56
56
56
56
56
56
56
56
56
56
56
56
56
56
56
56
56
56
56
56
56
56
56
56
56
56
56
56
56
56
56
56
56
56
56
56
56
56
56
56
56
56
56
56
56
56
56
56
56
56
56
56
56
56
56
56
56
56
56
56
56
56
56
56
56
56
56
56
56
56
56
56
56
56
56
56
56
56
56
56
56
56
56
56
56
56
56
56
56
56
56
56
56
56
56
56
56
56
56
56
56
56
56
56
56
0
124
124
0
120
120
0
120
120
0
120
120
0
120
120
0
120
120
0
120
120
0
120
120
0
120
120
0
120
120
0
120
120
0
120
120
0
120
120
0
120
120
0
120
120
0
120
120
0
120
120
0
120
120
0
120
120
0
120
120
0
120
120
0
120
120
0
120
120
0
120
120
0
120
120
0
120
120
0
120
120
0
120
120
0
120
120
0
120
120
0
120
120
0
120
120
0
120
120
0
120
120
0
120
120
0
120
120
0
120
120
0
120
120
0
120
120
0
120
120
0
120
120
0
120
120
0
120
120
0
120
120
0
120
120
0
120
120
0
120
120
0
120
120
0
120
120
0
120
120
0
120
120
0
120
120
0
120
120
0
120
120
0
120
120
0
120
120
0
120
120
0
120
120
0
120
120
0
120
120
0
120
120
0
120
120
56
56
56
56
56
56
32
176
176
0
152
152
0
152
152
0
140
140
0
116
116
0
112
112
32
176
176
0
140
140
0
140
140
0
140
140
0
140
140
0
140
140
0
116
116
0
112
112
32
176
176
0
152
152
0
140
140
0
140
140
0
140
140
0
140
140
0
116
116
0
112
112
32
176
176
0
140
140
0
140
140
0
140
140
0
140
140
0
140
140
0
116
116
0
112
112
32
176
176
0
140
140
0
140
140
0
140
140
0
140
140
0
140
140
0
116
116
0
112
112
32
176
176
0
140
140
0
140
140
0
140
140
0
140
140
0
140
140
0
116
116
0
112
112
32
176
176
0
140
140
0
140
140
0
140
140
0
140
140
0
140
140
0
116
116
0
112
112
32
176
176
0
140
140
0
140
140
0
140
140
0
140
140
0
140
140
0
140
140
0
120
120
56
56
56
56
56
56
32
176
176
32
176
176
32
176
176
32
176
176
0
124
124
0
64
64
0
112
112
32
176
176
32
176
176
32
176
176
32
176
176
32
176
176
0
124
124
0
64
64
0
112
112
32
176
176
32
176
176
32
176
176
32
176
176
32
176
176
0
124
124
0
64
64
0
112
112
32
176
176
32
176
176
32
176
176
32
176
176
32
176
176
0
124
124
0
64
64
0
112
112
32
180
180
32
180
180
72
192
192
72
192
192
32
176
176
0
124
124
0
64
64
0
112
112
72
192
192
72
192
192
72
192
192
32
176
176
32
176
176
0
124
124
0
64
64
0
112
112
32
176
176
32
176
176
32
176
176
32
176
176
32
176
176
0
124
124
0
64
64
0
112
112
32
176
176
0
152
152
0
140
140
0
140
140
0
152
152
0
140
140
0
120
120
56
56
56
56
56
56
32
176
176
32
176
176
32
176
176
32
176
176
0
120
120
0
124
124
0
140
140
32
176
176
32
176
176
32
176
176
32
176
176
32
176
176
0
120
120
0
124
124
0
140
140
32
176
176
32
176
176
32
176
176
32
176
176
32
176
176
0
120
120
0
124
124
0
140
140
32
176
176
32
176
176
32
176
176
32
176
176
32
176
176
0
120
120
0
124
124
0
140
140
32
180
180
72
192
192
116
200
200
156
220
220
32
176
176
0
120
120
0
124
124
0
140
140
72
192
192
72
192
192
32
176
176
32
176
176
32
176
176
0
120
120
0
124
124
0
140
140
32
176
176
32
176
176
32
176
176
32
176
176
32
176
176
0
120
120
0
124
124
0
140
140
0
152
152
0
140
140
0
140
140
0
140
140
0
152
152
0
140
140
0
120
120
56
56
56
56
56
56
32
176
176
32
176
176
32
176
176
32
176
176
0
132
132
0
88
88
0
88
88
0
88
88
0
88
88
0
88
88
0
88
88
0
88
88
0
88
88
0
88
88
0
88
88
0
88
88
0
88
88
0
88
88
0
88
88
0
88
88
0
88
88
0
88
88
0
88
88
0
88
88
0
88
88
0
88
88
0
88
88
0
88
88
0
88
88
0
88
88
0
88
88
0
88
88
0
88
88
0
88
88
0
88
88
0
88
88
0
88
88
0
88
88
0
88
88
0
88
88
0
88
88
0
88
88
0
88
88
0
88
88
0
88
88
0
88
88
0
88
88
0
88
88
0
88
88
0
88
88
0
88
88
0
88
88
0
88
88
0
88
88
0
88
88
0
88
88
0
88
88
0
140
140
0
152
152
0
152
152
0
140
140
0
120
120
56
56
56
56
56
56
32
176
176
32
176
176
32
176
176
32
176
176
32
176
176
0
124
124
0
120
120
0
112
112
0
112
112
0
112
112
0
112
112
0
112
112
0
112
112
0
112
112
0
112
112
0
112
112
0
112
112
0
112
112
0
112
112
0
112
112
0
112
112
0
112
112
0
112
112
0
112
112
0
112
112
0
112
112
0
112
112
0
112
112
0
112
112
0
112
112
0
112
112
0
112
112
0
112
112
0
112
112
0
112
112
0
112
112
0
112
112
0
112
112
0
112
112
0
112
112
0
112
112
0
112
112
0
112
112
0
112
112
0
112
112
0
112
112
0
112
112
0
112
112
0
112
112
0
112
112
0
112
112
0
112
112
0
112
112
0
112
112
0
112
112
0
112
112
0
88
88
0
140
140
0
152
152
0
152
152
0
140
140
0
120
120
56
56
56
56
56
56
0
152
152
0
132
132
184
232
232
32
176
176
156
220
220
32
176
176
0
140
140
0
140
140
0
140
140
0
140
140
0
140
140
0
140
140
0
140
140
0
140
140
0
140
140
0
140
140
0
140
140
0
140
140
0
140
140
0
140
140
0
140
140
0
140
140
0
140
140
0
140
140
0
140
140
0
140
140
0
140
140
0
140
140
0
140
140
0
140
140
0
140
140
0
140
140
0
140
140
0
140
140
0
140
140
0
140
140
0
140
140
0
140
140
0
140
140
0
140
140
0
140
140
0
140
140
0
140
140
0
140
140
0
140
140
0
140
140
0
140
140
0
140
140
0
140
140
0
140
140
0
140
140
0
140
140
0
140
140
0
140
140
0
140
140
0
112
112
0
88
88
0
152
152
0
132
132
184
232
232
0
140
140
0
120
120
56
56
56
56
56
56
0
124
124
0
112
112
0
132
132
32
176
176
184
232
232
72
192
192
0
164
164
0
164
164
0
164
164
0
164
164
0
164
164
0
164
164
0
164
164
0
164
164
0
164
164
0
164
164
0
164
164
0
164
164
0
164
164
0
164
164
0
164
164
0
164
164
0
164
164
32
176
176
32
176
176
32
176
176
32
176
176
32
180
180
32
180
180
32
180
180
32
180
180
32
180
180
72
192
192
32
180
180
72
192
192
32
180
180
72
192
192
32
180
180
72
192
192
32
180
180
32
180
180
32
180
180
32
180
180
32
176
176
32
176
176
32
176
176
0
164
164
0
164
164
0
164
164
0
164
164
0
164
164
0
152
152
0
152
152
0
152
152
0
140
140
0
112
112
0
88
88
0
124
124
0
112
112
0
132
132
0
140
140
0
120
120
56
56
56
56
56
56
0
120
120
0
124
124
0
140
140
32
176
176
184
232
232
116
200
200
0
164
164
0
164
164
0
164
164
0
164
164
0
164
164
0
164
164
0
164
164
0
164
164
0
164
164
0
164
164
0
164
164
0
164
164
0
164
164
0
164
164
0
164
164
32
176
176
32
176
176
32
176
176
32
176
176
32
176
176
32
180
180
32
180
180
32
180
180
32
180
180
32
180
180
72
192
192
32
180
180
72
192
192
32
180
180
72
192
192
32
180
180
72
192
192
32
180
180
32
180
180
32
180
180
32
180
180
32
176
176
32
176
176
32
176
176
0
164
164
0
164
164
0
164
164
0
164
164
0
164
164
0
152
152
0
152
152
0
152
152
0
152
152
0
140
140
0
112
112
0
88
88
0
120
120
0
124
124
0
140
140
0
140
140
0
120
120
56
56
56
56
56
56
0
164
164
0
164
164
32
176
176
32
176
176
184
232
232
116
200
200
0
164
164
0
164
164
0
164
164
0
164
164
0
164
164
0
164
164
0
164
164
0
164
164
0
164
164
0
164
164
0
164
164
0
164
164
0
164
164
32
176
176
32
176
176
32
176
176
32
176
176
32
176
176
32
180
180
32
180
180
32
180
180
32
180
180
72
192
192
32
180
180
72
192
192
32
180
180
72
192
192
32
180
180
72
192
192
32
180
180
72
192
192
32
180
180
32
180
180
32
180
180
32
180
180
32
176
176
32
176
176
32
176
176
0
164
164
0
164
164
0
164
164
0
164
164
0
164
164
0
152
152
0
164
164
0
152
152
0
152
152
0
152
152
0
140
140
0
112
112
0
88
88
0
152
152
0
164
164
0
164
164
0
140
140
0
120
120
56
56
56
56
56
56
32
176
176
32
176
176
32
176
176
32
176
176
184
232
232
116
200
200
0
164
164
0
164
164
0
164
164
0
164
164
0
164
164
0
164
164
0
164
164
0
164
164
0
164
164
0
164
164
0
164
164
32
176
176
32
176
176
32
176
176
32
176
176
32
176
176
32
180
180
32
180
180
32
180
180
32
180
180
32
180
180
72
192
192
32
180
180
72
192
192
32
180
180
72
192
192
32
180
180
72
192
192
32
180
180
72
192
192
32
180
180
32
180
180
32
180
180
32
180
180
32
176
176
32
176
176
32
176
176
0
164
164
32
176
176
0
164
164
0
164
164
0
164
164
0
152
152
0
164
164
0
152
152
0
152
152
0
140
140
0
140
140
0
140
140
0
112
112
0
88
88
0
152
152
0
164
164
0
164
164
0
140
140
0
120
120
56
56
56
56
56
56
32
176
176
32
176
176
32
176
176
32
176
176
184
232
232
116
200
200
0
164
164
0
164
164
0
164
164
0
164
164
0
164
164
0
164
164
0
164
164
0
164
164
32
176
176
32
176
176
32
176
176
32
176
176
32
176
176
32
176
176
32
180
180
32
180
180
32
180
180
32
180
180
72
192
192
32
180
180
72
192
192
32
180
180
72
192
192
32
180
180
72
192
192
32
180
180
72
192
192
32
180
180
72
192
192
32
180
180
32
180
180
32
180
180
32
180
180
32
176
176
32
176
176
32
176
176
0
164
164
32
176
176
0
164
164
0
164
164
0
164
164
0
152
152
0
164
164
0
152
152
0
152
152
0
140
140
0
140
140
0
140
140
0
140
140
0
112
112
0
88
88
0
152
152
0
164
164
32
176
176
0
140
140
0
120
120
56
56
56
56
56
56
32
176
176
32
176
176
32
176
176
32
176
176
184
232
232
116
200
200
0
164
164
0
164
164
0
164
164
0
164
164
0
164
164
0
164
164
32
176
176
32
176
176
32
176
176
32
176
176
32
176
176
32
176
176
32
180
180
32
180
180
32
180
180
32
180
180
32
180
180
72
192
192
32
180
180
72
192
192
32
180
180
72
192
192
32
180
180
72
192
192
32
180
180
72
192
192
32
180
180
72
192
192
32
180
180
32
180
180
32
180
180
32
180
180
32
176
176
32
176
176
32
176
176
0
164
164
32
176
176
0
164
164
0
164
164
0
164
164
0
152
152
0
164
164
0
152
152
0
152
152
0
152
152
0
152
152
0
140
140
0
140
140
0
140
140
0
112
112
0
88
88
0
164
164
0
164
164
32
176
176
0
140
140
0
120
120
56
56
56
56
56
56
32
176
176
32
176
176
32
176
176
32
176
176
184
232
232
116
200
200
0
164
164
0
164
164
0
164
164
0
164
164
32
176
176
32
176
176
32
176
176
32
176
176
32
176
176
32
176
176
32
180
180
32
180
180
32
180
180
32
180
180
32
180
180
32
180
180
72
192
192
32
180
180
72
192
192
32
180
180
72
192
192
32
180
180
72
192
192
32
180
180
72
192
192
32
180
180
72
192
192
32
180
180
32
180
180
32
180
180
32
180
180
32
176
176
32
176
176
32
176
176
0
164
164
32
176
176
0
164
164
0
164
164
0
164
164
0
152
152
0
164
164
0
152
152
0
152
152
0
152
152
0
152
152
0
140
140
0
140
140
0
140
140
0
140
140
0
112
112
0
88
88
0
164
164
32
176
176
32
176
176
0
140
140
0
120
120
56
56
56
56
56
56
0
152
152
0
132
132
184
232
232
32
176
176
184
232
232
116
200
200
0
164
164
0
164
164
32
176
176
32
176
176
32
176
176
32
176
176
32
176
176
32
176
176
32
176
176
32
180
180
32
180
180
32
180
180
32
180
180
32
180
180
32
180
180
72
192
192
32
180
180
72
192
192
32
180
180
72
192
192
32
180
180
72
192
192
32
180
180
72
192
192
32
180
180
72
192
192
32
180
180
32
180
180
32
180
180
32
180
180
32
176
176
32
176
176
32
176
176
0
164
164
32
176
176
0
164
164
0
164
164
0
164
164
0
152
152
0
164
164
0
152
152
0
152
152
0
152
152
0
152
152
0
140
140
0
140
140
0
140
140
0
140
140
0
140
140
0
112
112
0
88
88
0
152
152
0
132
132
184
232
232
0
140
140
0
120
120
56
56
56
56
56
56
0
124
124
0
112
112
0
132
132
32
176
176
184
232
232
116
200
200
32
176
176
32
176
176
32
176
176
32
176
176
32
176
176
32
176
176
32
176
176
32
180
180
32
180
180
32
180
180
32
180
180
32
180
180
72
192
192
32
180
180
72
192
192
32
180
180
72
192
192
32
180
180
72
192
192
32
180
180
72
192
192
32
180
180
72
192
192
32
180
180
72
192
192
32
180
180
32
180
180
32
180
180
32
180
180
32
176
176
32
176
176
32
176
176
32
176
176
32
176
176
0
164
164
0
164
164
0
164
164
0
164
164
0
164
164
0
152
152
0
152
152
0
152
152
0
152
152
0
140
140
0
140
140
0
140
140
0
132
132
0
140
140
0
140
140
0
112
112
0
88
88
0
124
124
0
112
112
0
132
132
0
140
140
0
120
120
56
56
56
56
56
56
0
120
120
0
124
124
0
140
140
32
176
176
184
232
232
116
200
200
32
176
176
32
176
176
32
176
176
32
176
176
32
176
176
32
180
180
32
180
180
32
180
180
32
180
180
32
180
180
32
180
180
72
192
192
32
180
180
72
192
192
32
180
180
72
192
192
32
180
180
72
192
192
32
180
180
72
192
192
32
180
180
72
192
192
32
180
180
72
192
192
32
180
180
32
180
180
32
180
180
32
180
180
32
176
176
32
180
180
32
176
176
32
176
176
32
176
176
0
164
164
0
164
164
0
164
164
0
164
164
0
164
164
0
152
152
0
152
152
0
152
152
0
152
152
0
140
140
0
140
140
0
140
140
0
140
140
0
132
132
0
140
140
0
140
140
0
112
112
0
88
88
0
120
120
0
124
124
0
140
140
0
140
140
0
120
120
56
56
56
56
56
56
0
164
164
0
164
164
32
176
176
32
176
176
184
232
232
116
200
200
32
176
176
32
176
176
32
176
176
32
180
180
32
180
180
32
180
180
32
180
180
32
180
180
32
180
180
32
180
180
72
192
192
32
180
180
72
192
192
32
180
180
72
192
192
32
180
180
72
192
192
32
180
180
72
192
192
32
180
180
72
192
192
32
180
180
72
192
192
32
180
180
32
180
180
32
180
180
32
180
180
32
176
176
32
180
180
32
176
176
32
176
176
32
176
176
0
164
164
0
164
164
0
164
164
0
164
164
0
164
164
0
152
152
0
164
164
0
152
152
0
152
152
0
140
140
0
152
152
0
140
140
0
140
140
0
132
132
0
140
140
0
140
140
0
140
140
0
112
112
0
88
88
0
164
164
0
164
164
32
176
176
0
140
140
0
120
120
56
56
56
56
56
56
32
176
176
32
176
176
32
176
176
32
176
176
184
232
232
116
200
200
32
176
176
32
180
180
32
180
180
32
180
180
32
180
180
32
180
180
32
180
180
32
180
180
32
180
180
72
192
192
32
180
180
72
192
192
32
180
180
72
192
192
32
180
180
72
192
192
32
180
180
72
192
192
32
180
180
72
192
192
32
180
180
72
192
192
32
180
180
32
180
180
32
180
180
32
180
180
32
176
176
32
180
180
32
176
176
32
176
176
32
176
176
0
164
164
0
164
164
0
164
164
0
164
164
0
164
164
0
152
152
0
164
164
0
152
152
0
152
152
0
140
140
0
152
152
0
140
140
0
140
140
0
140
140
0
132
132
0
140
140
0
140
140
0
140
140
0
112
112
0
88
88
0
164
164
32
176
176
32
176
176
0
140
140
0
120
120
56
56
56
56
56
56
32
176
176
32
176
176
32
176
176
32
176
176
184
232
232
116
200
200
32
180
180
32
180
180
32
180
180
32
180
180
32
180
180
32
180
180
32
180
180
32
180
180
72
192
192
32
180
180
72
192
192
32
180
180
72
192
192
32
180
180
72
192
192
32
180
180
72
192
192
32
180
180
72
192
192
32
180
180
72
192
192
32
180
180
72
192
192
32
180
180
32
180
180
32
176
176
32
180
180
32
176
176
32
176
176
32
176
176
0
164
164
0
164
164
0
164
164
0
164
164
0
164
164
0
152
152
0
164
164
0
152
152
0
152
152
0
140
140
0
152
152
0
140
140
0
140
140
0
140
140
0
140
140
0
140
140
0
140
140
0
140
140
0
140
140
0
112
112
0
88
88
0
164
164
32
176
176
32
176
176
0
140
140
0
120
120
56
56
56
56
56
56
32
176
176
32
176
176
32
176
176
32
176
176
184
232
232
116
200
200
32
180
180
32
180
180
32
180
180
32
180
180
32
180
180
72
192
192
32
180
180
72
192
192
32
180
180
72
192
192
32
180
180
72
192
192
32
180
180
72
192
192
32
180
180
72
192
192
32
180
180
72
192
192
32
180
180
72
192
192
32
180
180
72
192
192
32
180
180
32
180
180
32
176
176
32
180
180
32
176
176
32
176
176
32
176
176
0
164
164
32
176
176
0
164
164
0
164
164
0
164
164
0
152
152
0
164
164
0
152
152
0
152
152
0
152
152
0
152
152
0
140
140
0
140
140
0
140
140
0
140
140
0
132
132
0
140
140
0
140
140
0
140
140
0
140
140
0
112
112
0
88
88
32
176
176
32
176
176
32
176
176
0
140
140
0
120
120
56
56
56
56
56
56
32
176
176
32
176
176
32
176
176
32
176
176
184
232
232
116
200
200
32
180
180
32
180
180
32
180
180
32
180
180
72
192
192
32
180
180
72
192
192
32
180
180
72
192
192
32
180
180
72
192
192
32
180
180
72
192
192
32
180
180
72
192
192
32
180
180
72
192
192
32
180
180
72
192
192
32
180
180
72
192
192
32
180
180
32
180
180
32
176
176
32
180
180
32
176
176
32
176
176
32
176
176
0
164
164
32
176
176
0
164
164
0
164
164
0
164
164
0
164
164
0
164
164
0
152
152
0
152
152
0
152
152
0
152
152
0
140
140
0
140
140
0
140
140
0
140
140
0
132
132
0
140
140
0
140
140
0
140
140
0
140
140
0
140
140
0
112
112
0
88
88
32
176
176
32
176
176
32
176
176
0
140
140
0
120
120
56
56
56
56
56
56
0
152
152
0
132
132
184
232
232
32
176
176
184
232
232
116
200
200
32
180
180
32
180
180
32
180
180
72
192
192
32
180
180
72
192
192
32
180
180
72
192
192
32
180
180
72
192
192
32
180
180
72
192
192
32
180
180
72
192
192
32
180
180
72
192
192
32
180
180
72
192
192
32
180
180
72
192
192
32
180
180
32
180
180
32
176
176
32
180
180
32
176
176
32
176
176
32
176
176
0
164
164
32
176
176
0
164
164
0
164
164
0
164
164
0
164
164
0
164
164
0
152
152
0
152
152
0
152
152
0
152
152
0
140
140
0
152
152
0
140
140
0
140
140
0
132
132
0
140
140
0
140
140
0
140
140
0
140
140
0
152
152
0
140
140
0
112
112
0
88
88
0
152
152
0
132
132
184
232
232
0
140
140
0
120
120
56
56
56
56
56
56
0
124
124
0
112
112
0
132
132
32
176
176
184
232
232
116
200
200
32
180
180
32
180
180
72
192
192
32
180
180
72
192
192
32
180
180
72
192
192
32
180
180
72
192
192
32
180
180
72
192
192
32
180
180
72
192
192
32
180
180
72
192
192
32
180
180
72
192
192
32
180
180
72
192
192
32
180
180
32
180
180
32
176
176
32
180
180
32
176
176
32
176
176
32
176
176
0
164
164
32
176
176
0
164
164
0
164
164
0
164
164
0
164
164
0
164
164
0
152
152
0
152
152
0
152
152
0
152
152
0
140
140
0
152
152
0
140
140
0
140
140
0
132
132
0
140
140
0
140
140
0
140
140
0
140
140
0
140
140
0
140
140
0
140
140
0
112
112
0
88
88
0
124
124
0
112
112
0
132
132
0
140
140
0
120
120
56
56
56
56
56
56
0
120
120
0
124
124
0
140
140
32
176
176
184
232
232
116
200
200
32
180
180
72
192
192
32
180
180
72
192
192
32
180
180
72
192
192
32
180
180
72
192
192
32
180
180
72
192
192
32
180
180
72
192
192
32
180
180
72
192
192
32
180
180
72
192
192
32
180
180
72
192
192
32
180
180
32
180
180
32
176
176
32
180
180
32
176
176
32
176
176
32
176
176
0
164
164
32
176
176
0
164
164
0
164
164
0
164
164
0
164
164
0
164
164
0
152
152
0
152
152
0
152
152
0
152
152
0
140
140
0
152
152
0
140
140
0
140
140
0
132
132
0
140
140
0
132
132
0
140
140
0
140
140
0
140
140
0
140
140
0
152
152
0
140
140
0
112
112
0
88
88
0
120
120
0
124
124
0
140
140
0
140
140
0
120
120
56
56
56
56
56
56
0
164
164
0
164
164
32
176
176
32
176
176
184
232
232
116
200
200
72
192
192
32
180
180
72
192
192
32
180
180
72
192
192
32
180
180
72
192
192
32
180
180
72
192
192
32
180
180
72
192
192
32
180
180
72
192
192
32
180
180
72
192
192
32
180
180
72
192
192
32
180
180
32
180
180
32
176
176
32
180
180
32
176
176
32
176
176
32
176
176
32
176
176
32
176
176
0
164
164
0
164
164
0
164
164
0
164
164
0
164
164
0
152
152
0
164
164
0
152
152
0
152
152
0
140
140
0
152
152
0
140
140
0
140
140
0
132
132
0
140
140
0
132
132
0
140
140
0
140
140
0
140
140
0
140
140
0
152
152
0
140
140
0
140
140
0
112
112
0
88
88
0
164
164
0
164
164
0
164
164
0
140
140
0
120
120
56
56
56
56
56
56
32
176
176
32
176
176
32
176
176
32
176
176
184
232
232
116
200
200
32
180
180
72
192
192
32
180
180
72
192
192
32
180
180
72
192
192
32
180
180
72
192
192
168
168
168
208
208
208
208
208
208
208
208
208
208
208
208
208
208
208
208
208
208
208
208
208
192
192
192
192
192
192
32
176
176
32
180
180
32
176
176
32
176
176
32
176
176
32
176
176
32
176
176
0
164
164
0
164
164
0
164
164
0
164
164
0
164
164
0
152
152
0
164
164
0
152
152
0
152
152
0
140
140
0
152
152
0
140
140
0
140
140
0
132
132
0
140
140
0
132
132
0
140
140
0
140
140
0
140
140
0
140
140
0
140
140
0
140
140
0
152
152
0
140
140
0
112
112
0
88
88
32
176
176
0
164
164
0
164
164
0
140
140
0
120
120
56
56
56
56
56
56
32
176
176
32
176
176
32
180
180
32
180
180
184
232
232
116
200
200
72
192
192
32
180
180
72
192
192
32
180
180
72
192
192
32
180
180
72
192
192
32
176
176
124
124
124
100
100
100
112
112
112
112
112
112
124
124
124
124
124
124
140
140
140
152
152
152
168
168
168
192
192
192
32
180
180
32
176
176
32
176
176
32
176
176
32
176
176
32
176
176
0
164
164
0
164
164
0
164
164
0
164
164
0
164
164
0
152
152
0
164
164
0
152
152
0
152
152
0
152
152
0
152
152
0
140
140
0
140
140
0
140
140
0
140
140
0
132
132
0
140
140
0
132
132
0
140
140
0
140
140
0
140
140
0
140
140
0
152
152
0
140
140
0
140
140
0
112
112
0
88
88
0
164
164
0
164
164
0
152
152
0
140
140
0
120
120
56
56
56
56
56
56
32
176
176
32
180
180
32
180
180
32
180
180
184
232
232
116
200
200
32
180
180
72
192
192
180
172
0
228
216
0
252
244
0
72
192
192
32
176
176
0
124
124
44
44
44
100
100
100
56
56
56
168
168
168
112
112
112
124
124
124
84
84
84
208
208
208
152
152
152
180
180
180
32
176
176
32
176
176
32
176
176
32
176
176
32
176
176
0
164
164
0
164
164
0
164
164
0
164
164
0
164
164
0
152
152
0
164
164
0
152
152
0
152
152
0
152
152
0
152
152
0
140
140
0
152
152
0
140
140
0
140
140
0
132
132
0
140
140
0
132
132
0
140
140
0
140
140
0
140
140
0
140
140
0
152
152
0
140
140
0
152
152
0
140
140
0
112
112
0
88
88
0
164
164
0
152
152
0
132
132
0
140
140
0
120
120
56
56
56
56
56
56
32
180
180
32
180
180
32
180
180
32
180
180
184
232
232
116
200
200
72
192
192
0
120
120
88
84
0
132
132
0
252
244
0
32
180
180
0
164
164
0
124
124
44
44
44
100
100
100
100
100
100
100
100
100
112
112
112
112
112
112
124
124
124
124
124
124
140
140
140
180
180
180
32
176
176
32
176
176
32
176
176
32
176
176
0
164
164
32
176
176
0
164
164
0
164
164
0
164
164
0
152
152
0
164
164
0
152
152
0
152
152
0
152
152
0
152
152
0
140
140
0
152
152
0
140
140
0
140
140
0
132
132
0
140
140
0
132
132
0
140
140
0
132
132
0
140
140
0
140
140
0
140
140
0
140
140
0
152
152
0
152
152
0
140
140
0
112
112
0
88
88
0
164
164
0
140
140
0
124
124
0
140
140
0
120
120
56
56
56
56
56
56
0
152
152
0
132
132
184
232
232
32
180
180
184
232
232
116
200
200
0
132
132
0
116
116
64
64
0
132
132
0
228
216
0
116
200
200
0
140
140
0
124
124
44
44
44
100
100
100
100
100
100
100
100
100
100
100
100
112
112
112
112
112
112
124
124
124
124
124
124
180
180
180
32
176
176
32
176
176
32
176
176
0
164
164
32
176
176
0
164
164
0
164
164
0
164
164
0
164
164
0
164
164
0
152
152
0
152
152
0
152
152
0
152
152
0
140
140
0
152
152
0
140
140
0
140
140
0
132
132
0
140
140
0
132
132
0
140
140
0
132
132
0
140
140
0
140
140
0
140
140
0
140
140
0
152
152
0
140
140
0
152
152
0
140
140
0
112
112
0
88
88
0
140
140
0
120
120
72
192
192
0
140
140
0
120
120
56
56
56
56
56
56
0
124
124
0
112
112
0
132
132
32
180
180
184
232
232
32
176
176
0
132
132
0
140
140
64
64
0
132
132
0
228
216
0
72
192
192
0
140
140
0
124
124
44
44
44
100
100
100
100
100
100
100
100
100
100
100
100
100
100
100
112
112
112
112
112
112
124
124
124
168
168
168
32
176
176
32
176
176
0
164
164
32
176
176
0
164
164
0
164
164
0
164
164
0
164
164
0
164
164
0
152
152
0
152
152
0
152
152
0
152
152
0
140
140
0
152
152
0
140
140
0
140
140
0
132
132
0
140
140
0
132
132
0
140
140
0
132
132
0
140
140
0
132
132
0
140
140
0
140
140
0
152
152
0
140
140
0
152
152
0
152
152
0
140
140
0
112
112
0
88
88
0
124
124
0
108
108
0
120
120
0
140
140
0
120
120
56
56
56
56
56
56
0
120
120
0
124
124
0
140
140
72
192
192
184
232
232
0
152
152
0
132
132
156
220
220
64
64
0
132
132
0
228
216
0
72
192
192
0
140
140
0
124
124
44
44
44
84
84
84
72
72
72
132
132
0
204
196
0
204
196
0
252
244
0
112
112
112
112
112
112
168
168
168
32
176
176
0
164
164
32
176
176
0
164
164
0
164
164
0
164
164
0
164
164
0
164
164
0
152
152
0
152
152
0
152
152
0
152
152
0
140
140
0
152
152
0
140
140
0
140
140
0
140
140
0
140
140
0
132
132
0
140
140
0
132
132
0
140
140
0
132
132
0
140
140
0
140
140
0
140
140
0
140
140
0
152
152
0
152
152
0
152
152
0
140
140
0
112
112
0
88
88
0
120
120
0
124
124
0
140
140
0
140
140
0
120
120
56
56
56
56
56
56
0
164
164
0
164
164
72
192
192
116
200
200
116
200
200
0
152
152
0
132
132
116
200
200
64
64
0
132
132
0
204
196
0
72
192
192
0
140
140
0
124
124
44
44
44
72
72
72
44
44
44
112
108
0
0
0
0
0
0
0
204
196
0
100
100
100
112
112
112
168
168
168
0
164
164
32
176
176
0
164
164
0
164
164
0
164
164
0
164
164
0
164
164
0
152
152
0
164
164
0
152
152
0
152
152
0
140
140
0
152
152
0
140
140
0
140
140
0
140
140
0
140
140
0
132
132
0
140
140
0
132
132
0
140
140
0
132
132
0
140
140
0
140
140
0
140
140
0
140
140
0
152
152
0
140
140
0
152
152
0
152
152
0
140
140
0
112
112
0
88
88
0
124
124
0
124
124
0
152
152
0
140
140
0
120
120
56
56
56
56
56
56
72
192
192
116
200
200
116
200
200
156
220
220
32
180
180
0
152
152
0
132
132
116
200
200
64
64
0
132
132
0
204
196
0
72
192
192
0
140
140
0
124
124
44
44
44
56
56
56
44
44
44
112
108
0
0
0
0
0
0
0
204
196
0
100
100
100
100
100
100
168
168
168
32
176
176
0
164
164
0
164
164
0
164
164
0
164
164
0
164
164
0
152
152
0
164
164
0
152
152
0
152
152
0
140
140
0
152
152
0
140
140
0
152
152
0
140
140
0
140
140
0
132
132
0
140
140
0
132
132
0
140
140
0
132
132
0
140
140
0
132
132
0
140
140
0
140
140
0
152
152
0
140
140
0
152
152
0
152
152
0
152
152
0
140
140
0
112
112
0
88
88
0
124
124
0
140
140
0
152
152
0
140
140
0
120
120
56
56
56
56
56
56
116
200
200
116
200
200
156
220
220
156
220
220
32
176
176
0
152
152
0
132
132
116
200
200
64
64
0
132
132
0
204
196
0
72
192
192
0
140
140
0
124
124
44
44
44
44
44
44
44
44
44
88
84
0
44
44
44
44
44
44
204
196
0
100
100
100
100
100
100
168
168
168
0
164
164
0
164
164
0
164
164
0
164
164
0
164
164
0
152
152
0
164
164
0
152
152
0
152
152
0
152
152
0
152
152
0
140
140
0
152
152
0
140
140
0
140
140
0
132
132
0
140
140
0
132
132
0
140
140
0
132
132
0
140
140
0
132
132
0
140
140
0
140
140
0
140
140
0
140
140
0
152
152
0
152
152
0
152
152
0
152
152
0
140
140
0
112
112
0
88
88
0
132
132
0
140
140
0
164
164
0
140
140
0
120
120
56
56
56
56
56
56
116
200
200
156
220
220
156
220
220
184
232
232
32
176
176
0
152
152
0
132
132
72
192
192
64
64
0
132
132
0
180
172
0
72
192
192
0
140
140
0
124
124
44
44
44
44
44
44
44
44
44
88
84
0
88
84
0
112
108
0
132
132
0
100
100
100
100
100
100
168
168
168
0
164
164
0
164
164
0
164
164
0
164
164
0
152
152
0
164
164
0
152
152
0
152
152
0
152
152
0
152
152
0
140
140
0
152
152
0
140
140
0
140
140
0
132
132
0
140
140
0
132
132
0
140
140
0
132
132
0
140
140
0
132
132
0
140
140
0
140
140
0
140
140
0
140
140
0
152
152
0
140
140
0
152
152
0
152
152
0
152
152
0
140
140
0
112
112
0
88
88
0
132
132
0
140
140
0
164
164
0
140
140
0
120
120
56
56
56
56
56
56
156
220
220
184
232
232
184
232
232
184
232
232
32
176
176
0
152
152
0
132
132
72
192
192
64
64
0
132
132
0
180
172
0
72
192
192
0
140
140
0
124
124
44
44
44
44
44
44
44
44
44
44
44
44
44
44
44
44
44
44
44
44
44
100
100
100
100
100
100
152
152
152
0
164
164
0
164
164
0
164
164
0
152
152
0
164
164
0
152
152
0
152
152
0
152
152
0
152
152
0
140
140
0
152
152
0
140
140
0
140
140
0
132
132
0
140
140
0
132
132
0
140
140
0
132
132
0
140
140
0
132
132
0
140
140
0
140
140
0
140
140
0
140
140
0
152
152
0
140
140
0
152
152
0
152
152
0
152
152
0
152
152
0
140
140
0
112
112
0
88
88
0
140
140
0
152
152
32
176
176
0
140
140
0
120
120
56
56
56
56
56
56
116
200
200
32
180
180
184
232
232
216
244
244
32
176
176
0
152
152
0
132
132
72
192
192
64
64
0
132
132
0
156
156
0
72
192
192
0
140
140
0
124
124
44
44
44
44
44
44
44
44
44
44
44
44
44
44
44
44
44
44
72
72
72
100
100
100
100
100
100
152
152
152
0
164
164
0
164
164
0
152
152
0
164
164
0
152
152
0
152
152
0
152
152
0
152
152
0
140
140
0
152
152
0
140
140
0
140
140
0
140
140
0
140
140
0
132
132
0
140
140
0
132
132
0
140
140
0
132
132
0
140
140
0
132
132
0
140
140
0
140
140
0
140
140
0
140
140
0
152
152
0
152
152
0
152
152
0
152
152
0
152
152
0
140
140
0
112
112
0
88
88
0
140
140
0
124
124
156
220
220
0
140
140
0
120
120
56
56
56
56
56
56
32
176
176
0
124
124
32
180
180
184
232
232
32
176
176
0
152
152
0
132
132
0
140
140
0
116
116
64
64
0
112
108
0
32
180
180
0
140
140
0
124
124
44
44
44
56
56
56
56
56
56
72
72
72
72
72
72
84
84
84
100
100
100
100
100
100
100
100
100
152
152
152
0
164
164
0
164
164
0
164
164
0
152
152
0
152
152
0
152
152
0
152
152
0
140
140
0
152
152
0
140
140
0
140
140
0
140
140
0
140
140
0
132
132
0
140
140
0
132
132
0
140
140
0
132
132
0
140
140
0
132
132
0
140
140
0
140
140
0
140
140
0
140
140
0
152
152
0
140
140
0
152
152
0
152
152
0
152
152
0
152
152
0
140
140
0
112
112
0
88
88
0
124
124
0
112
112
0
124
124
0
140
140
0
120
120
56
56
56
56
56
56
32
176
176
32
176
176
116
200
200
184
232
232
32
180
180
0
152
152
0
132
132
0
120
120
0
120
120
0
132
132
32
180
180
32
180
180
0
140
140
0
124
124
44
44
44
56
56
56
32
32
32
112
112
112
84
84
84
100
100
100
44
44
44
140
140
140
100
100
100
140
140
140
0
164
164
0
164
164
0
152
152
0
164
164
0
152
152
0
152
152
0
140
140
0
152
152
0
140
140
0
140
140
0
140
140
0
140
140
0
132
132
0
140
140
0
132
132
0
140
140
0
132
132
0
140
140
0
132
132
0
140
140
0
140
140
0
140
140
0
140
140
0
152
152
0
140
140
0
152
152
0
152
152
0
152
152
0
152
152
0
164
164
0
140
140
0
112
112
0
88
88
0
120
120
0
124
124
0
140
140
0
140
140
0
120
120
56
56
56
56
56
56
116
200
200
116
200
200
184
232
232
156
220
220
32
180
180
0
152
152
0
132
132
0
132
132
0
132
132
32
180
180
32
180
180
32
180
180
0
140
140
0
124
124
44
44
44
44
44
44
56
56
56
84
84
84
84
84
84
84
84
84
100
100
100
100
100
100
100
100
100
140
140
140
0
164
164
0
152
152
0
164
164
0
152
152
0
152
152
0
140
140
0
152
152
0
140
140
0
152
152
0
140
140
0
140
140
0
132
132
0
140
140
0
132
132
0
140
140
0
132
132
0
140
140
0
132
132
0
140
140
0
140
140
0
140
140
0
140
140
0
140
140
0
140
140
0
152
152
0
152
152
0
152
152
0
152
152
0
152
152
0
152
152
0
140
140
0
112
112
0
88
88
0
132
132
0
152
152
0
164
164
0
140
140
0
120
120
56
56
56
56
56
56
216
244
244
184
232
232
156
220
220
156
220
220
32
180
180
0
152
152
0
132
132
0
140
140
32
180
180
32
180
180
32
180
180
32
176
176
0
140
140
0
124
124
44
44
44
44
44
44
44
44
44
44
44
44
44
44
44
44
44
44
44
44
44
44
44
44
44
44
44
100
100
100
0
152
152
0
164
164
0
152
152
0
152
152
0
152
152
0
152
152
0
140
140
0
152
152
0
140
140
0
140
140
0
132
132
0
140
140
0
132
132
0
140
140
0
132
132
0
140
140
0
132
132
0
140
140
0
132
132
0
140
140
0
140
140
0
140
140
0
140
140
0
152
152
0
140
140
0
152
152
0
152
152
0
152
152
0
152
152
0
164
164
0
140
140
0
112
112
0
88
88
0
140
140
0
152
152
0
164
164
0
140
140
0
120
120
56
56
56
56
56
56
184
232
232
156
220
220
156
220
220
116
200
200
32
180
180
0
152
152
0
152
152
32
180
180
32
180
180
32
180
180
32
180
180
32
176
176
0
140
140
0
124
124
0
124
124
0
124
124
0
124
124
0
124
124
0
124
124
0
124
124
0
124
124
0
124
124
0
124
124
0
152
152
0
164
164
0
152
152
0
152
152
0
152
152
0
152
152
0
140
140
0
152
152
0
140
140
0
140
140
0
140
140
0
140
140
0
132
132
0
140
140
0
132
132
0
140
140
0
132
132
0
140
140
0
132
132
0
140
140
0
140
140
0
140
140
0
140
140
0
152
152
0
140
140
0
152
152
0
152
152
0
152
152
0
152
152
0
164
164
0
152
152
0
140
140
0
112
112
0
88
88
0
152
152
0
164
164
32
176
176
0
140
140
0
120
120
56
56
56
56
56
56
156
220
220
156
220
220
116
200
200
116
200
200
32
180
180
0
152
152
32
180
180
32
180
180
32
180
180
32
180
180
32
176
176
32
176
176
0
140
140
0
140
140
0
140
140
0
140
140
0
140
140
0
140
140
0
140
140
0
140
140
0
140
140
0
140
140
0
164
164
0
164
164
0
152
152
0
152
152
0
152
152
0
152
152
0
140
140
0
152
152
0
140
140
0
140
140
0
140
140
0
140
140
0
132
132
0
140
140
0
132
132
0
140
140
0
132
132
0
140
140
0
132
132
0
140
140
0
140
140
0
140
140
0
140
140
0
152
152
0
140
140
0
152
152
0
152
152
0
152
152
0
152
152
0
152
152
0
152
152
0
164
164
0
140
140
0
112
112
0
88
88
0
152
152
0
164
164
32
176
176
0
140
140
0
120
120
56
56
56
56
56
56
156
220
220
116
200
200
72
192
192
72
192
192
72
192
192
32
176
176
32
180
180
32
180
180
32
180
180
32
176
176
32
176
176
32
176
176
32
176
176
32
176
176
32
176
176
32
176
176
0
164
164
32
176
176
0
164
164
0
164
164
0
164
164
0
164
164
0
164
164
0
152
152
0
152
152
0
152
152
0
152
152
0
140
140
0
152
152
0
140
140
0
140
140
0
140
140
0
140
140
0
132
132
0
140
140
0
132
132
0
140
140
0
132
132
0
140
140
0
132
132
0
140
140
0
140
140
0
140
140
0
140
140
0
140
140
0
140
140
0
152
152
0
140
140
0
152
152
0
152
152
0
152
152
0
152
152
0
164
164
0
152
152
0
140
140
0
112
112
0
88
88
0
164
164
0
164
164
32
176
176
0
140
140
0
120
120
56
56
56
56
56
56
0
152
152
0
132
132
184
232
232
72
192
192
184
232
232
32
180
180
32
180
180
32
180
180
32
176
176
32
176
176
32
176
176
32
176
176
32
176
176
32
176
176
32
176
176
0
164
164
32
176
176
0
164
164
0
164
164
0
164
164
0
164
164
0
164
164
0
152
152
0
152
152
0
152
152
0
152
152
0
140
140
0
152
152
0
140
140
0
140
140
0
140
140
0
140
140
0
132
132
0
140
140
0
132
132
0
140
140
0
132
132
0
140
140
0
132
132
0
140
140
0
132
132
0
140
140
0
140
140
0
140
140
0
140
140
0
152
152
0
140
140
0
152
152
0
152
152
0
152
152
0
152
152
0
152
152
0
152
152
0
164
164
0
140
140
0
112
112
0
88
88
0
152
152
0
132
132
184
232
232
0
140
140
0
120
120
56
56
56
56
56
56
0
124
124
0
112
112
0
132
132
72
192
192
184
232
232
72
192
192
32
180
180
32
176
176
32
176
176
32
176
176
32
176
176
32
176
176
32
176
176
32
176
176
0
164
164
32
176
176
0
164
164
0
164
164
0
164
164
0
164
164
0
164
164
0
152
152
0
152
152
0
152
152
0
152
152
0
140
140
0
152
152
0
140
140
0
140
140
0
140
140
0
140
140
0
132
132
0
140
140
0
132
132
0
140
140
0
132
132
0
140
140
0
132
132
0
140
140
0
132
132
0
140
140
0
140
140
0
140
140
0
140
140
0
152
152
0
140
140
0
152
152
0
152
152
0
152
152
0
152
152
0
152
152
0
152
152
0
164
164
0
164
164
0
140
140
0
112
112
0
88
88
0
124
124
0
112
112
0
132
132
0
140
140
0
120
120
56
56
56
56
56
56
0
120
120
0
124
124
0
140
140
72
192
192
184
232
232
116
200
200
32
176
176
32
176
176
32
176
176
32
176
176
32
176
176
32
176
176
32
176
176
0
164
164
32
176
176
0
164
164
32
176
176
0
164
164
0
164
164
0
164
164
0
152
152
0
164
164
0
152
152
0
152
152
0
140
140
0
152
152
0
140
140
0
152
152
0
140
140
0
140
140
0
132
132
0
140
140
0
132
132
0
140
140
0
132
132
0
140
140
0
132
132
0
140
140
0
132
132
0
140
140
0
140
140
0
140
140
0
140
140
0
140
140
0
140
140
0
152
152
0
140
140
0
152
152
0
152
152
0
152
152
0
152
152
0
164
164
0
152
152
0
164
164
0
140
140
0
112
112
0
88
88
0
120
120
0
124
124
0
140
140
0
140
140
0
120
120
56
56
56
56
56
56
0
164
164
0
164
164
72
192
192
72
192
192
184
232
232
116
200
200
32
176
176
32
176
176
32
176
176
32
176
176
32
176
176
32
176
176
0
164
164
32
176
176
0
164
164
32
176
176
0
164
164
0
164
164
0
164
164
0
152
152
0
164
164
0
152
152
0
152
152
0
140
140
0
152
152
0
140
140
0
152
152
0
140
140
0
140
140
0
140
140
0
140
140
0
132
132
0
140
140
0
132
132
0
140
140
0
132
132
0
140
140
0
132
132
0
140
140
0
140
140
0
140
140
0
140
140
0
140
140
0
140
140
0
152
152
0
140
140
0
152
152
0
152
152
0
152
152
0
152
152
0
152
152
0
152
152
0
164
164
0
164
164
0
140
140
0
112
112
0
88
88
0
164
164
0
164
164
32
176
176
0
140
140
0
120
120
56
56
56
56
56
56
72
192
192
72
192
192
72
192
192
32
180
180
184
232
232
116
200
200
32
176
176
32
176
176
32
176
176
32
176
176
32
176
176
0
164
164
32
176
176
0
164
164
32
176
176
0
164
164
0
164
164
0
164
164
0
152
152
0
164
164
0
152
152
0
152
152
0
152
152
0
152
152
0
140
140
0
152
152
0
140
140
0
140
140
0
140
140
0
140
140
0
132
132
0
140
140
0
132
132
0
140
140
0
132
132
0
140
140
0
132
132
0
140
140
0
132
132
0
140
140
0
140
140
0
140
140
0
140
140
0
152
152
0
140
140
0
152
152
0
152
152
0
152
152
0
152
152
0
152
152
0
152
152
0
164
164
0
152
152
0
164
164
0
140
140
0
112
112
0
88
88
0
164
164
0
164
164
32
176
176
0
140
140
0
120
120
56
56
56
56
56
56
72
192
192
72
192
192
32
180
180
32
180
180
184
232
232
116
200
200
32
176
176
32
176
176
32
176
176
32
176
176
0
164
164
32
176
176
0
164
164
32
176
176
0
164
164
0
164
164
0
164
164
0
152
152
0
164
164
0
152
152
0
152
152
0
152
152
0
152
152
0
140
140
0
152
152
0
140
140
0
140
140
0
140
140
0
140
140
0
132
132
0
140
140
0
132
132
0
140
140
0
132
132
0
140
140
0
132
132
0
140
140
0
132
132
0
140
140
0
140
140
0
140
140
0
140
140
0
140
140
0
140
140
0
152
152
0
140
140
0
152
152
0
152
152
0
152
152
0
152
152
0
152
152
0
152
152
0
164
164
0
164
164
0
140
140
0
112
112
0
88
88
0
164
164
0
164
164
32
176
176
0
140
140
0
120
120
56
56
56
56
56
56
32
180
180
32
180
180
32
180
180
32
180
180
184
232
232
116
200
200
32
176
176
32
176
176
32
176
176
0
164
164
32
176
176
0
164
164
32
176
176
0
164
164
32
176
176
0
164
164
0
152
152
0
164
164
0
152
152
0
152
152
0
152
152
0
152
152
0
140
140
0
152
152
0
140
140
0
140
140
0
140
140
0
140
140
0
132
132
0
140
140
0
132
132
0
140
140
0
132
132
0
140
140
0
132
132
0
140
140
0
132
132
0
140
140
0
140
140
0
140
140
0
140
140
0
140
140
0
140
140
0
152
152
0
140
140
0
152
152
0
152
152
0
152
152
0
152
152
0
152
152
0
152
152
0
164
164
0
164
164
0
164
164
0
140
140
0
112
112
0
88
88
0
164
164
0
164
164
32
176
176
0
140
140
0
120
120
56
56
56
56
56
56
32
180
180
32
180
180
32
180
180
32
180
180
184
232
232
116
200
200
32
176
176
32
176
176
0
164
164
32
176
176
0
164
164
32
176
176
0
164
164
32
176
176
0
164
164
0
164
164
0
164
164
0
152
152
0
152
152
0
152
152
0
152
152
0
140
140
0
152
152
0
140
140
0
140
140
0
140
140
0
140
140
0
132
132
0
140
140
0
132
132
0
140
140
0
132
132
0
140
140
0
132
132
0
140
140
0
132
132
0
140
140
0
140
140
0
140
140
0
140
140
0
140
140
0
140
140
0
152
152
0
140
140
0
152
152
0
152
152
0
152
152
0
152
152
0
152
152
0
152
152
0
164
164
0
152
152
0
164
164
0
164
164
0
140
140
0
112
112
0
88
88
0
164
164
32
176
176
32
176
176
0
140
140
0
120
120
56
56
56
56
56
56
0
152
152
0
132
132
184
232
232
32
180
180
184
232
232
116
200
200
32
176
176
32
176
176
32
176
176
0
164
164
32
176
176
0
164
164
32
176
176
0
164
164
0
164
164
0
164
164
0
152
152
0
152
152
0
152
152
0
152
152
0
140
140
0
152
152
0
140
140
0
140
140
0
140
140
0
140
140
0
132
132
0
140
140
0
140
140
0
140
140
0
132
132
0
140
140
0
132
132
0
140
140
0
132
132
0
140
140
0
132
132
0
140
140
0
140
140
0
140
140
0
140
140
0
152
152
0
140
140
0
152
152
0
140
140
0
152
152
0
152
152
0
152
152
0
152
152
0
152
152
0
152
152
0
164
164
0
164
164
0
164
164
0
140
140
0
112
112
0
88
88
0
152
152
0
132
132
184
232
232
0
140
140
0
120
120
56
56
56
56
56
56
0
124
124
0
112
112
0
132
132
32
180
180
184
232
232
116
200
200
32
176
176
32
176
176
0
164
164
32
176
176
0
164
164
32
176
176
0
164
164
0
164
164
0
164
164
0
152
152
0
152
152
0
152
152
0
152
152
0
140
140
0
152
152
0
140
140
0
140
140
0
140
140
0
140
140
0
140
140
0
140
140
0
140
140
0
140
140
0
132
132
0
140
140
0
132
132
0
140
140
0
132
132
0
140
140
0
132
132
0
140
140
0
140
140
0
140
140
0
140
140
0
140
140
0
140
140
0
152
152
0
140
140
0
152
152
0
152
152
0
152
152
0
152
152
0
152
152
0
152
152
0
164
164
0
152
152
0
164
164
0
164
164
0
164
164
0
120
120
0
88
88
0
124
124
0
112
112
0
132
132
0
140
140
0
120
120
56
56
56
56
56
56
0
120
120
0
124
124
0
140
140
32
176
176
184
232
232
116
200
200
116
200
200
116
200
200
116
200
200
116
200
200
116
200
200
116
200
200
116
200
200
116
200
200
116
200
200
116
200
200
116
200
200
116
200
200
116
200
200
116
200
200
116
200
200
116
200
200
116
200
200
72
192
192
72
192
192
72
192
192
32
180
180
32
180
180
32
176
176
0
164
164
0
164
164
0
164
164
0
164
164
32
176
176
32
180
180
72
192
192
72
192
192
72
192
192
72
192
192
72
192
192
72
192
192
72
192
192
72
192
192
72
192
192
72
192
192
72
192
192
72
192
192
32
180
180
32
180
180
32
180
180
32
180
180
32
180
180
32
180
180
32
180
180
32
180
180
0
124
124
0
88
88
0
120
120
0
124
124
0
140
140
0
140
140
0
120
120
56
56
56
56
56
56
0
164
164
0
164
164
32
176
176
32
176
176
184
232
232
184
232
232
184
232
232
184
232
232
184
232
232
184
232
232
184
232
232
184
232
232
184
232
232
184
232
232
184
232
232
184
232
232
184
232
232
184
232
232
184
232
232
184
232
232
184
232
232
184
232
232
184
232
232
156
220
220
156
220
220
156
220
220
156
220
220
116
200
200
116
200
200
72
192
192
72
192
192
72
192
192
116
200
200
116
200
200
156
220
220
156
220
220
156
220
220
156
220
220
156
220
220
156
220
220
156
220
220
156
220
220
156
220
220
156
220
220
156
220
220
156
220
220
156
220
220
156
220
220
156
220
220
156
220
220
116
200
200
116
200
200
116
200
200
116
200
200
72
192
192
0
140
140
0
124
124
0
164
164
0
164
164
32
176
176
0
140
140
0
120
120
56
56
56
56
56
56
32
176
176
32
176
176
32
176
176
32
176
176
32
176
176
32
176
176
32
176
176
32
176
176
32
176
176
32
176
176
32
176
176
32
176
176
32
176
176
0
164
164
0
164
164
0
164
164
0
164
164
0
152
152
0
152
152
0
152
152
0
152
152
0
152
152
0
152
152
0
152
152
0
152
152
0
140
140
0
132
132
0
132
132
0
124
124
0
124
124
0
124
124
0
124
124
0
124
124
0
132
132
0
140
140
0
140
140
0
152
152
0
152
152
0
152
152
0
152
152
0
152
152
0
152
152
0
164
164
0
164
164
32
176
176
32
176
176
32
176
176
32
176
176
32
176
176
32
176
176
32
176
176
32
176
176
32
176
176
32
176
176
32
176
176
32
176
176
32
176
176
32
176
176
32
176
176
32
176
176
0
140
140
0
120
120
56
56
56
56
56
56
32
176
176
32
176
176
32
176
176
32
176
176
0
152
152
0
132
132
184
232
232
32
176
176
32
176
176
32
176
176
32
176
176
32
176
176
0
152
152
0
132
132
184
232
232
0
164
164
0
152
152
0
152
152
0
152
152
0
152
152
0
152
152
0
112
112
32
180
180
0
152
152
0
140
140
0
132
132
0
132
132
0
124
124
0
120
120
0
112
112
0
152
152
0
124
124
0
124
124
0
132
132
0
140
140
0
152
152
0
152
152
0
112
112
32
180
180
0
152
152
0
152
152
0
152
152
0
164
164
32
176
176
0
152
152
0
132
132
184
232
232
32
176
176
32
176
176
32
176
176
32
176
176
32
176
176
0
152
152
0
132
132
184
232
232
32
176
176
32
176
176
32
176
176
32
176
176
32
176
176
0
140
140
0
120
120
56
56
56
56
56
56
32
176
176
32
176
176
32
176
176
32
176
176
0
124
124
0
112
112
0
132
132
32
176
176
32
176
176
32
176
176
32
176
176
32
176
176
0
124
124
0
112
112
0
132
132
0
152
152
0
152
152
0
152
152
0
152
152
0
152
152
0
124
124
0
64
64
0
112
112
0
140
140
0
132
132
0
132
132
0
124
124
0
124
124
0
112
112
0
64
64
0
88
88
0
124
124
0
132
132
0
132
132
0
140
140
0
152
152
0
124
124
0
64
64
0
112
112
0
152
152
0
152
152
0
164
164
0
164
164
32
176
176
0
124
124
0
112
112
0
132
132
32
176
176
32
176
176
32
176
176
32
176
176
32
176
176
0
124
124
0
112
112
0
132
132
32
176
176
32
176
176
32
176
176
32
176
176
32
176
176
0
140
140
0
120
120
56
56
56
72
72
72
32
176
176
32
176
176
32
176
176
32
176
176
0
120
120
0
124
124
0
140
140
32
176
176
32
176
176
32
176
176
32
176
176
32
176
176
0
120
120
0
124
124
0
140
140
0
152
152
0
152
152
0
152
152
0
152
152
0
152
152
0
120
120
0
124
124
0
140
140
0
140
140
0
132
132
0
132
132
0
124
124
0
124
124
0
112
112
0
112
112
0
120
120
0
132
132
0
132
132
0
140
140
0
152
152
0
152
152
0
120
120
0
124
124
0
140
140
0
152
152
0
152
152
0
164
164
32
176
176
32
176
176
0
120
120
0
124
124
0
140
140
32
176
176
32
176
176
32
176
176
32
176
176
32
176
176
0
120
120
0
124
124
0
140
140
32
176
176
32
176
176
32
176
176
32
176
176
32
176
176
0
140
140
0
120
120
72
72
72
84
84
84
84
84
84
84
84
84
84
84
84
84
84
84
84
84
84
84
84
84
84
84
84
84
84
84
84
84
84
84
84
84
84
84
84
84
84
84
84
84
84
84
84
84
84
84
84
84
84
84
84
84
84
84
84
84
84
84
84
84
84
84
84
84
84
84
84
84
84
84
84
84
84
84
84
84
84
84
84
84
84
84
84
84
84
84
84
84
84
84
84
84
84
84
84
84
84
84
84
84
84
84
84
84
84
84
84
84
84
84
84
84
84
84
84
84
84
84
84
84
84
84
84
84
84
84
84
84
84
84
84
84
84
84
84
84
84
84
84
84
84
84
84
84
84
84
84
84
84
84
84
84
84
84
84
84
84
84
84
84
84
84
84
84
84
84
84
84
84
84
84
84
84
84
84
84
84
84
84
84
84
84
84
84
84
84
84
84
84
84
84
