P3
# Created by GIMP version 2.10.34 PNM plug-in
64 64
255
44
44
44
44
44
44
44
44
44
44
44
44
44
44
44
44
44
44
44
44
44
44
44
44
44
44
44
44
44
44
44
44
44
44
44
44
44
44
44
44
44
44
44
44
44
44
44
44
44
44
44
44
44
44
44
44
44
44
44
44
44
44
44
44
44
44
44
44
44
44
44
44
44
44
44
44
44
44
44
44
44
44
44
44
44
44
44
44
44
44
44
44
44
44
44
44
44
44
44
44
44
44
44
44
44
44
44
44
44
44
44
44
44
44
44
44
44
44
44
44
44
44
44
44
44
44
44
44
44
44
44
44
44
44
44
44
44
44
44
44
44
44
44
44
44
44
44
44
44
44
44
44
44
44
44
44
44
44
44
44
44
44
44
44
44
44
44
44
44
44
44
44
44
44
44
44
44
44
44
44
44
44
44
44
44
44
44
44
44
44
44
44
44
44
44
44
44
44
44
44
44
44
44
44
44
44
44
44
44
44
44
44
44
44
44
44
44
44
44
44
44
44
32
32
32
124
124
124
124
124
124
124
124
124
124
124
124
124
124
124
124
124
124
124
124
124
124
124
124
124
124
124
124
124
124
124
124
124
124
124
124
124
124
124
124
124
124
124
124
124
124
124
124
0
0
0
0
0
0
72
72
72
100
100
100
124
124
124
112
112
112
112
112
112
112
112
112
112
112
112
112
112
112
112
112
112
124
124
124
124
124
124
100
100
100
72
72
72
44
44
44
0
0
0
32
32
32
32
32
32
32
32
32
32
32
32
32
32
32
32
32
32
32
32
32
32
32
32
32
32
32
32
32
32
44
44
44
44
44
44
44
44
44
44
44
44
44
44
44
44
44
44
44
44
44
44
44
44
44
44
44
44
44
44
32
32
32
32
32
32
32
32
32
32
32
32
32
32
32
32
32
32
32
32
32
32
32
32
0
0
0
44
44
44
32
32
32
124
124
124
112
112
112
112
112
112
112
112
112
124
124
124
112
112
112
112
112
112
112
112
112
112
112
112
112
112
112
112
112
112
124
124
124
112
112
112
112
112
112
112
112
112
72
72
72
0
0
0
0
0
0
72
72
72
124
124
124
112
112
112
72
72
72
100
100
100
72
72
72
72
72
72
72
72
72
72
72
72
72
72
72
72
72
72
100
100
100
44
44
44
0
0
0
0
0
0
0
0
0
72
72
72
72
72
72
72
72
72
72
72
72
72
72
72
72
72
72
72
72
72
56
56
56
72
72
72
56
56
56
32
32
32
32
32
32
32
32
32
32
32
32
32
32
32
32
32
32
32
32
32
32
32
32
32
32
32
72
72
72
72
72
72
72
72
72
72
72
72
72
72
72
72
72
72
72
72
72
72
72
72
0
0
0
44
44
44
32
32
32
124
124
124
112
112
112
124
124
124
112
112
112
112
112
112
112
112
112
112
112
112
124
124
124
112
112
112
112
112
112
124
124
124
124
124
124
112
112
112
112
112
112
72
72
72
56
56
56
0
0
0
0
0
0
100
100
100
124
124
124
100
100
100
100
100
100
72
72
72
72
72
72
100
100
100
72
72
72
100
100
100
72
72
72
100
100
100
72
72
72
44
44
44
0
0
0
0
0
0
0
0
0
72
72
72
124
124
124
124
124
124
124
124
124
124
124
124
124
124
124
124
124
124
124
124
124
112
112
112
100
100
100
72
72
72
72
72
72
72
72
72
72
72
72
72
72
72
72
72
72
72
72
72
72
72
72
72
72
72
124
124
124
124
124
124
124
124
124
124
124
124
124
124
124
100
100
100
56
56
56
72
72
72
0
0
0
44
44
44
32
32
32
124
124
124
112
112
112
100
100
100
100
100
100
100
100
100
100
100
100
72
72
72
100
100
100
100
100
100
100
100
100
100
100
100
84
84
84
100
100
100
100
100
100
56
56
56
44
44
44
0
0
0
0
0
0
72
72
72
124
124
124
100
100
100
72
72
72
72
72
72
100
100
100
100
100
100
100
100
100
100
100
100
72
72
72
72
72
72
72
72
72
44
44
44
0
0
0
0
0
0
0
0
0
72
72
72
124
124
124
124
124
124
124
124
124
124
124
124
124
124
124
112
112
112
124
124
124
124
124
124
124
124
124
124
124
124
124
124
124
124
124
124
124
124
124
124
124
124
124
124
124
124
124
124
124
124
124
124
124
124
72
72
72
72
72
72
112
112
112
84
84
84
100
100
100
72
72
72
56
56
56
72
72
72
0
0
0
32
32
32
32
32
32
140
140
140
124
124
124
84
84
84
100
100
100
100
100
100
100
100
100
100
100
100
100
100
100
100
100
100
84
84
84
100
100
100
72
72
72
100
100
100
100
100
100
72
72
72
44
44
44
0
0
0
0
0
0
32
32
32
100
100
100
72
72
72
100
100
100
100
100
100
72
72
72
100
100
100
72
72
72
72
72
72
100
100
100
72
72
72
44
44
44
44
44
44
0
0
0
0
0
0
0
0
0
72
72
72
124
124
124
112
112
112
100
100
100
72
72
72
100
100
100
72
72
72
100
100
100
100
100
100
100
100
100
72
72
72
72
72
72
100
100
100
72
72
72
72
72
72
72
72
72
100
100
100
72
72
72
100
100
100
100
100
100
124
124
124
112
112
112
100
100
100
100
100
100
100
100
100
56
56
56
44
44
44
0
0
0
32
32
32
32
32
32
140
140
140
112
112
112
100
100
100
72
72
72
100
100
100
84
84
84
100
100
100
72
72
72
84
84
84
84
84
84
84
84
84
72
72
72
84
84
84
100
100
100
72
72
72
44
44
44
0
0
0
0
0
0
32
32
32
56
56
56
72
72
72
72
72
72
100
100
100
72
72
72
72
72
72
100
100
100
72
72
72
100
100
100
100
100
100
32
32
32
0
0
0
0
0
0
0
0
0
0
0
0
72
72
72
124
124
124
112
112
112
72
72
72
100
100
100
72
72
72
84
84
84
72
72
72
72
72
72
72
72
72
100
100
100
72
72
72
72
72
72
100
100
100
72
72
72
100
100
100
100
100
100
100
100
100
100
100
100
84
84
84
124
124
124
112
112
112
112
112
112
72
72
72
84
84
84
56
56
56
44
44
44
0
0
0
0
0
0
32
32
32
140
140
140
112
112
112
72
72
72
84
84
84
72
72
72
100
100
100
100
100
100
100
100
100
72
72
72
56
56
56
72
72
72
84
84
84
100
100
100
72
72
72
56
56
56
44
44
44
0
0
0
0
0
0
32
32
32
32
32
32
72
72
72
100
100
100
100
100
100
100
100
100
72
72
72
72
72
72
100
100
100
100
100
100
72
72
72
32
32
32
0
0
0
0
0
0
0
0
0
0
0
0
72
72
72
124
124
124
112
112
112
100
100
100
72
72
72
84
84
84
56
56
56
100
100
100
84
84
84
56
56
56
72
72
72
100
100
100
124
124
124
100
100
100
100
100
100
72
72
72
84
84
84
124
124
124
100
100
100
72
72
72
112
112
112
72
72
72
100
100
100
100
100
100
72
72
72
56
56
56
44
44
44
0
0
0
0
0
0
32
32
32
124
124
124
124
124
124
100
100
100
84
84
84
100
100
100
72
72
72
100
100
100
72
72
72
84
84
84
72
72
72
84
84
84
72
72
72
72
72
72
100
100
100
72
72
72
44
44
44
0
0
0
0
0
0
32
32
32
44
44
44
32
32
32
56
56
56
32
32
32
32
32
32
32
32
32
32
32
32
0
0
0
0
0
0
0
0
0
0
0
0
0
0
0
0
0
0
0
0
0
0
0
0
56
56
56
124
124
124
124
124
124
72
72
72
100
100
100
72
72
72
56
56
56
84
84
84
56
56
56
84
84
84
84
84
84
100
100
100
72
72
72
72
72
72
72
72
72
84
84
84
100
100
100
100
100
100
84
84
84
100
100
100
100
100
100
112
112
112
72
72
72
72
72
72
84
84
84
56
56
56
44
44
44
0
0
0
0
0
0
32
32
32
100
100
100
140
140
140
100
100
100
100
100
100
100
100
100
72
72
72
72
72
72
84
84
84
72
72
72
72
72
72
72
72
72
72
72
72
100
100
100
72
72
72
44
44
44
56
56
56
0
0
0
0
0
0
0
0
0
32
32
32
0
0
0
0
0
0
0
0
0
0
0
0
0
0
0
0
0
0
0
0
0
0
0
0
0
0
0
0
0
0
0
0
0
0
0
0
32
32
32
32
32
32
32
32
32
124
124
124
112
112
112
72
72
72
72
72
72
72
72
72
84
84
84
84
84
84
84
84
84
84
84
84
124
124
124
72
72
72
84
84
84
72
72
72
72
72
72
84
84
84
72
72
72
84
84
84
72
72
72
84
84
84
72
72
72
84
84
84
84
84
84
84
84
84
72
72
72
32
32
32
32
32
32
0
0
0
0
0
0
32
32
32
72
72
72
124
124
124
72
72
72
100
100
100
72
72
72
84
84
84
56
56
56
72
72
72
84
84
84
100
100
100
84
84
84
100
100
100
84
84
84
100
100
100
84
84
84
44
44
44
0
0
0
0
0
0
0
0
0
32
32
32
0
0
0
0
0
0
0
0
0
0
0
0
0
0
0
0
0
0
0
0
0
0
0
0
0
0
0
0
0
0
0
0
0
0
0
0
32
32
32
44
44
44
32
32
32
124
124
124
112
112
112
72
72
72
100
100
100
72
72
72
100
100
100
72
72
72
72
72
72
72
72
72
84
84
84
72
72
72
56
56
56
72
72
72
100
100
100
72
72
72
100
100
100
72
72
72
72
72
72
72
72
72
72
72
72
72
72
72
72
72
72
72
72
72
44
44
44
32
32
32
32
32
32
0
0
0
0
0
0
32
32
32
72
72
72
124
124
124
100
100
100
72
72
72
84
84
84
56
56
56
56
56
56
56
56
56
100
100
100
84
84
84
72
72
72
72
72
72
56
56
56
84
84
84
72
72
72
56
56
56
0
0
0
0
0
0
0
0
0
32
32
32
32
32
32
32
32
32
32
32
32
72
72
72
56
56
56
72
72
72
100
100
100
100
100
100
100
100
100
100
100
100
84
84
84
72
72
72
0
0
0
44
44
44
32
32
32
112
112
112
72
72
72
72
72
72
72
72
72
56
56
56
56
56
56
56
56
56
44
44
44
44
44
44
44
44
44
44
44
44
44
44
44
56
56
56
56
56
56
56
56
56
56
56
56
56
56
56
56
56
56
56
56
56
56
56
56
56
56
56
56
56
56
44
44
44
32
32
32
0
0
0
0
0
0
0
0
0
0
0
0
44
44
44
32
32
32
124
124
124
112
112
112
72
72
72
84
84
84
72
72
72
84
84
84
84
84
84
84
84
84
84
84
84
100
100
100
56
56
56
72
72
72
100
100
100
84
84
84
44
44
44
0
0
0
0
0
0
0
0
0
32
32
32
72
72
72
100
100
100
100
100
100
124
124
124
124
124
124
140
140
140
124
124
124
112
112
112
112
112
112
84
84
84
72
72
72
44
44
44
0
0
0
44
44
44
32
32
32
72
72
72
72
72
72
56
56
56
56
56
56
44
44
44
32
32
32
32
32
32
32
32
32
44
44
44
44
44
44
44
44
44
44
44
44
44
44
44
44
44
44
44
44
44
44
44
44
44
44
44
44
44
44
32
32
32
32
32
32
32
32
32
44
44
44
44
44
44
0
0
0
0
0
0
0
0
0
0
0
0
0
0
0
44
44
44
32
32
32
100
100
100
112
112
112
84
84
84
100
100
100
84
84
84
56
56
56
72
72
72
100
100
100
72
72
72
84
84
84
84
84
84
84
84
84
72
72
72
72
72
72
44
44
44
0
0
0
0
0
0
0
0
0
0
0
0
100
100
100
124
124
124
124
124
124
112
112
112
112
112
112
76
76
76
100
100
100
76
76
76
100
100
100
72
72
72
72
72
72
32
32
32
0
0
0
0
0
0
0
0
0
0
0
0
0
0
0
0
0
0
32
32
32
32
32
32
32
32
32
32
32
32
32
32
32
32
32
32
32
32
32
32
32
32
32
32
32
32
32
32
32
32
32
32
32
32
32
32
32
32
32
32
32
32
32
0
0
0
0
0
0
0
0
0
0
0
0
0
0
0
0
0
0
0
0
0
0
0
0
0
0
0
0
0
0
44
44
44
32
32
32
72
72
72
112
112
112
100
100
100
84
84
84
100
100
100
84
84
84
72
72
72
56
56
56
72
72
72
56
56
56
72
72
72
100
100
100
84
84
84
44
44
44
44
44
44
0
0
0
0
0
0
0
0
0
32
32
32
100
100
100
124
124
124
124
124
124
100
100
100
76
76
76
76
76
76
76
76
76
72
72
72
72
72
72
72
72
72
44
44
44
0
0
0
0
0
0
0
0
0
0
0
0
0
0
0
0
0
0
0
0
0
0
0
0
0
0
0
0
0
0
0
0
0
0
0
0
0
0
0
0
0
0
0
0
0
0
0
0
0
0
0
0
0
0
0
0
0
0
0
0
0
0
0
0
0
0
0
0
0
0
0
0
0
0
0
0
0
0
0
0
0
0
0
0
0
0
0
0
0
0
0
0
0
0
0
0
44
44
44
32
32
32
72
72
72
124
124
124
84
84
84
100
100
100
84
84
84
72
72
72
100
100
100
84
84
84
100
100
100
72
72
72
100
100
100
84
84
84
100
100
100
44
44
44
72
72
72
32
32
32
0
0
0
0
0
0
32
32
32
100
100
100
140
140
140
100
100
100
92
92
92
92
92
92
92
92
92
76
76
76
100
100
100
72
72
72
100
100
100
44
44
44
0
0
0
0
0
0
0
0
0
32
32
32
44
44
44
44
44
44
44
44
44
44
44
44
0
0
0
32
32
32
32
32
32
32
32
32
32
32
32
32
32
32
32
32
32
32
32
32
32
32
32
32
32
32
32
32
32
32
32
32
32
32
32
32
32
32
84
84
84
84
84
84
84
84
84
84
84
84
84
84
84
84
84
84
84
84
84
84
84
84
84
84
84
0
0
0
0
0
0
44
44
44
32
32
32
124
124
124
124
124
124
84
84
84
84
84
84
72
72
72
84
84
84
84
84
84
56
56
56
72
72
72
84
84
84
72
72
72
72
72
72
72
72
72
44
44
44
44
44
44
0
0
0
0
0
0
32
32
32
100
100
100
140
140
140
72
72
72
92
92
92
100
100
100
100
100
100
92
92
92
100
100
100
92
92
92
72
72
72
44
44
44
0
0
0
0
0
0
0
0
0
72
72
72
100
100
100
124
124
124
124
124
124
44
44
44
32
32
32
44
44
44
56
56
56
84
84
84
84
84
84
84
84
84
84
84
84
84
84
84
84
84
84
84
84
84
84
84
84
84
84
84
84
84
84
84
84
84
124
124
124
124
124
124
124
124
124
124
124
124
124
124
124
124
124
124
112
112
112
112
112
112
72
72
72
0
0
0
0
0
0
44
44
44
32
32
32
72
72
72
124
124
124
84
84
84
100
100
100
84
84
84
56
56
56
72
72
72
84
84
84
84
84
84
100
100
100
84
84
84
72
72
72
72
72
72
72
72
72
32
32
32
0
0
0
0
0
0
32
32
32
100
100
100
112
112
112
100
100
100
100
100
100
92
92
92
72
72
72
100
100
100
72
72
72
100
100
100
72
72
72
44
44
44
0
0
0
0
0
0
0
0
0
100
100
100
124
124
124
124
124
124
100
100
100
0
0
0
32
32
32
56
56
56
124
124
124
124
124
124
124
124
124
124
124
124
124
124
124
124
124
124
124
124
124
124
124
124
124
124
124
124
124
124
124
124
124
124
124
124
100
100
100
84
84
84
72
72
72
100
100
100
84
84
84
100
100
100
100
100
100
72
72
72
112
112
112
0
0
0
0
0
0
44
44
44
32
32
32
72
72
72
84
84
84
100
100
100
84
84
84
100
100
100
100
100
100
84
84
84
100
100
100
72
72
72
84
84
84
72
72
72
44
44
44
72
72
72
44
44
44
32
32
32
0
0
0
0
0
0
32
32
32
100
100
100
112
112
112
100
100
100
72
72
72
72
72
72
72
72
72
72
72
72
72
72
72
44
44
44
44
44
44
44
44
44
0
0
0
0
0
0
0
0
0
124
124
124
124
124
124
100
100
100
72
72
72
0
0
0
32
32
32
84
84
84
124
124
124
112
112
112
112
112
112
112
112
112
112
112
112
112
112
112
112
112
112
112
112
112
112
112
112
112
112
112
112
112
112
112
112
112
100
100
100
72
72
72
100
100
100
84
84
84
100
100
100
72
72
72
72
72
72
72
72
72
72
72
72
0
0
0
0
0
0
32
32
32
44
44
44
32
32
32
84
84
84
84
84
84
72
72
72
84
84
84
84
84
84
72
72
72
44
44
44
44
44
44
72
72
72
44
44
44
72
72
72
44
44
44
32
32
32
0
0
0
0
0
0
0
0
0
0
0
0
100
100
100
72
72
72
72
72
72
72
72
72
72
72
72
32
32
32
32
32
32
32
32
32
32
32
32
32
32
32
0
0
0
0
0
0
0
0
0
56
56
56
124
124
124
112
112
112
72
72
72
72
72
72
0
0
0
32
32
32
84
84
84
124
124
124
112
112
112
100
100
100
84
84
84
100
100
100
84
84
84
100
100
100
72
72
72
84
84
84
72
72
72
84
84
84
84
84
84
100
100
100
84
84
84
84
84
84
100
100
100
84
84
84
100
100
100
84
84
84
72
72
72
44
44
44
0
0
0
0
0
0
32
32
32
44
44
44
32
32
32
56
56
56
44
44
44
44
44
44
44
44
44
44
44
44
32
32
32
32
32
32
32
32
32
0
0
0
0
0
0
0
0
0
0
0
0
0
0
0
0
0
0
0
0
0
0
0
0
0
0
0
72
72
72
72
72
72
32
32
32
32
32
32
32
32
32
0
0
0
0
0
0
0
0
0
0
0
0
0
0
0
0
0
0
0
0
0
0
0
0
56
56
56
124
124
124
100
100
100
100
100
100
72
72
72
0
0
0
32
32
32
84
84
84
124
124
124
100
100
100
76
76
76
92
92
92
76
76
76
92
92
92
72
72
72
84
84
84
76
76
76
56
56
56
72
72
72
72
72
72
100
100
100
72
72
72
100
100
100
84
84
84
100
100
100
84
84
84
84
84
84
72
72
72
44
44
44
0
0
0
0
0
0
32
32
32
44
44
44
32
32
32
0
0
0
0
0
0
0
0
0
0
0
0
0
0
0
0
0
0
0
0
0
0
0
0
0
0
0
0
0
0
0
0
0
0
0
0
0
0
0
0
0
0
0
0
0
0
0
0
0
0
0
0
0
0
44
44
44
0
0
0
0
0
0
0
0
0
0
0
0
0
0
0
0
0
0
0
0
0
0
0
0
0
0
0
0
0
0
0
0
0
72
72
72
124
124
124
100
100
100
84
84
84
72
72
72
0
0
0
32
32
32
72
72
72
124
124
124
76
76
76
100
100
100
92
92
92
100
100
100
92
92
92
100
100
100
92
92
92
84
84
84
72
72
72
84
84
84
84
84
84
72
72
72
100
100
100
56
56
56
56
56
56
72
72
72
84
84
84
100
100
100
72
72
72
44
44
44
0
0
0
0
0
0
0
0
0
44
44
44
44
44
44
32
32
32
0
0
0
0
0
0
0
0
0
0
0
0
0
0
0
0
0
0
0
0
0
0
0
0
0
0
0
32
32
32
32
32
32
32
32
32
32
32
32
32
32
32
32
32
32
32
32
32
72
72
72
72
72
72
84
84
84
100
100
100
100
100
100
84
84
84
72
72
72
72
72
72
56
56
56
44
44
44
0
0
0
0
0
0
56
56
56
124
124
124
124
124
124
100
100
100
72
72
72
56
56
56
0
0
0
32
32
32
72
72
72
124
124
124
100
100
100
76
76
76
84
84
84
72
72
72
84
84
84
72
72
72
84
84
84
64
64
64
64
64
64
72
72
72
72
72
72
72
72
72
72
72
72
56
56
56
56
56
56
72
72
72
100
100
100
84
84
84
56
56
56
32
32
32
0
0
0
0
0
0
0
0
0
72
72
72
124
124
124
124
124
124
124
124
124
124
124
124
124
124
124
112
112
112
100
100
100
72
72
72
56
56
56
0
0
0
32
32
32
56
56
56
56
56
56
100
100
100
100
100
100
124
124
124
124
124
124
112
112
112
124
124
124
124
124
124
124
124
124
124
124
124
124
124
124
124
124
124
124
124
124
112
112
112
84
84
84
56
56
56
0
0
0
0
0
0
56
56
56
124
124
124
124
124
124
100
100
100
84
84
84
72
72
72
0
0
0
32
32
32
56
56
56
124
124
124
100
100
100
84
84
84
72
72
72
100
100
100
72
72
72
100
100
100
72
72
72
64
64
64
64
64
64
72
72
72
84
84
84
72
72
72
84
84
84
100
100
100
100
100
100
84
84
84
84
84
84
72
72
72
56
56
56
32
32
32
0
0
0
0
0
0
0
0
0
124
124
124
124
124
124
100
100
100
84
84
84
84
84
84
84
84
84
100
100
100
84
84
84
84
84
84
0
0
0
44
44
44
32
32
32
56
56
56
112
112
112
140
140
140
140
140
140
124
124
124
124
124
124
112
112
112
124
124
124
124
124
124
124
124
124
124
124
124
124
124
124
124
124
124
124
124
124
124
124
124
72
72
72
44
44
44
0
0
0
0
0
0
72
72
72
124
124
124
112
112
112
84
84
84
72
72
72
72
72
72
0
0
0
32
32
32
72
72
72
124
124
124
72
72
72
100
100
100
84
84
84
72
72
72
84
84
84
72
72
72
72
72
72
100
100
100
72
72
72
100
100
100
72
72
72
84
84
84
100
100
100
84
84
84
84
84
84
100
100
100
84
84
84
72
72
72
44
44
44
0
0
0
0
0
0
0
0
0
0
0
0
124
124
124
100
100
100
72
72
72
84
84
84
100
100
100
100
100
100
84
84
84
84
84
84
100
100
100
0
0
0
44
44
44
32
32
32
84
84
84
140
140
140
124
124
124
72
72
72
100
100
100
72
72
72
100
100
100
84
84
84
72
72
72
100
100
100
84
84
84
100
100
100
84
84
84
72
72
72
84
84
84
56
56
56
32
32
32
0
0
0
0
0
0
72
72
72
140
140
140
100
100
100
72
72
72
100
100
100
44
44
44
0
0
0
32
32
32
32
32
32
72
72
72
72
72
72
56
56
56
44
44
44
44
44
44
44
44
44
56
56
56
56
56
56
72
72
72
56
56
56
72
72
72
72
72
72
56
56
56
56
56
56
56
56
56
56
56
56
56
56
56
44
44
44
32
32
32
0
0
0
0
0
0
0
0
0
0
0
0
0
0
0
124
124
124
100
100
100
100
100
100
100
100
100
84
84
84
100
100
100
72
72
72
100
100
100
56
56
56
0
0
0
32
32
32
32
32
32
84
84
84
140
140
140
100
100
100
100
100
100
100
100
100
72
72
72
56
56
56
100
100
100
100
100
100
84
84
84
72
72
72
84
84
84
100
100
100
84
84
84
100
100
100
44
44
44
32
32
32
0
0
0
0
0
0
72
72
72
140
140
140
100
100
100
84
84
84
84
84
84
44
44
44
0
0
0
44
44
44
0
0
0
0
0
0
32
32
32
32
32
32
32
32
32
32
32
32
32
32
32
32
32
32
32
32
32
32
32
32
44
44
44
44
44
44
44
44
44
44
44
44
32
32
32
32
32
32
0
0
0
0
0
0
0
0
0
0
0
0
0
0
0
0
0
0
0
0
0
0
0
0
0
0
0
124
124
124
84
84
84
100
100
100
84
84
84
100
100
100
112
112
112
84
84
84
72
72
72
56
56
56
0
0
0
32
32
32
32
32
32
84
84
84
140
140
140
84
84
84
100
100
100
84
84
84
84
84
84
100
100
100
72
72
72
72
72
72
100
100
100
84
84
84
84
84
84
84
84
84
84
84
84
84
84
84
44
44
44
32
32
32
0
0
0
0
0
0
72
72
72
140
140
140
84
84
84
100
100
100
72
72
72
44
44
44
0
0
0
44
44
44
0
0
0
0
0
0
0
0
0
0
0
0
0
0
0
0
0
0
0
0
0
0
0
0
0
0
0
0
0
0
0
0
0
0
0
0
32
32
32
0
0
0
0
0
0
0
0
0
0
0
0
0
0
0
0
0
0
32
32
32
32
32
32
32
32
32
32
32
32
32
32
32
32
32
32
124
124
124
100
100
100
84
84
84
72
72
72
100
100
100
84
84
84
100
100
100
72
72
72
56
56
56
0
0
0
0
0
0
32
32
32
84
84
84
140
140
140
84
84
84
84
84
84
100
100
100
72
72
72
72
72
72
56
56
56
84
84
84
84
84
84
100
100
100
84
84
84
72
72
72
84
84
84
72
72
72
44
44
44
32
32
32
0
0
0
0
0
0
72
72
72
140
140
140
100
100
100
100
100
100
84
84
84
44
44
44
0
0
0
44
44
44
0
0
0
0
0
0
0
0
0
0
0
0
0
0
0
0
0
0
0
0
0
0
0
0
0
0
0
0
0
0
0
0
0
0
0
0
0
0
0
32
32
32
56
56
56
56
56
56
72
72
72
72
72
72
84
84
84
72
72
72
72
72
72
72
72
72
72
72
72
32
32
32
0
0
0
124
124
124
100
100
100
84
84
84
84
84
84
72
72
72
100
100
100
72
72
72
72
72
72
56
56
56
0
0
0
0
0
0
32
32
32
84
84
84
140
140
140
100
100
100
72
72
72
72
72
72
84
84
84
56
56
56
72
72
72
84
84
84
84
84
84
84
84
84
56
56
56
72
72
72
72
72
72
84
84
84
44
44
44
32
32
32
0
0
0
0
0
0
72
72
72
140
140
140
84
84
84
100
100
100
100
100
100
44
44
44
0
0
0
44
44
44
32
32
32
32
32
32
32
32
32
44
44
44
44
44
44
44
44
44
44
44
44
44
44
44
44
44
44
44
44
44
0
0
0
0
0
0
0
0
0
56
56
56
72
72
72
112
112
112
124
124
124
124
124
124
124
124
124
112
112
112
112
112
112
112
112
112
100
100
100
72
72
72
0
0
0
124
124
124
100
100
100
100
100
100
72
72
72
76
76
76
72
72
72
100
100
100
72
72
72
56
56
56
0
0
0
0
0
0
32
32
32
72
72
72
124
124
124
124
124
124
84
84
84
84
84
84
100
100
100
72
72
72
84
84
84
56
56
56
64
64
64
72
72
72
56
56
56
72
72
72
84
84
84
72
72
72
44
44
44
32
32
32
0
0
0
0
0
0
72
72
72
124
124
124
72
72
72
84
84
84
100
100
100
44
44
44
0
0
0
32
32
32
100
100
100
124
124
124
124
124
124
112
112
112
72
72
72
56
56
56
44
44
44
32
32
32
32
32
32
32
32
32
32
32
32
32
32
32
44
44
44
56
56
56
112
112
112
112
112
112
112
112
112
124
124
124
112
112
112
100
100
100
100
100
100
84
84
84
100
100
100
32
32
32
0
0
0
140
140
140
84
84
84
84
84
84
100
100
100
76
76
76
84
84
84
100
100
100
84
84
84
72
72
72
32
32
32
0
0
0
32
32
32
56
56
56
112
112
112
124
124
124
100
100
100
72
72
72
84
84
84
56
56
56
84
84
84
64
64
64
64
64
64
72
72
72
72
72
72
100
100
100
72
72
72
56
56
56
44
44
44
0
0
0
0
0
0
0
0
0
72
72
72
124
124
124
100
100
100
84
84
84
84
84
84
44
44
44
0
0
0
32
32
32
124
124
124
72
72
72
72
72
72
112
112
112
124
124
124
124
124
124
124
124
124
124
124
124
124
124
124
124
124
124
84
84
84
0
0
0
44
44
44
56
56
56
124
124
124
112
112
112
100
100
100
100
100
100
72
72
72
100
100
100
84
84
84
84
84
84
72
72
72
100
100
100
0
0
0
140
140
140
84
84
84
100
100
100
84
84
84
100
100
100
100
100
100
72
72
72
100
100
100
72
72
72
32
32
32
0
0
0
0
0
0
44
44
44
124
124
124
140
140
140
100
100
100
100
100
100
84
84
84
84
84
84
84
84
84
84
84
84
100
100
100
64
64
64
64
64
64
92
92
92
84
84
84
72
72
72
44
44
44
0
0
0
0
0
0
0
0
0
72
72
72
124
124
124
72
72
72
100
100
100
72
72
72
44
44
44
0
0
0
32
32
32
124
124
124
84
84
84
84
84
84
100
100
100
100
100
100
84
84
84
84
84
84
100
100
100
84
84
84
72
72
72
56
56
56
0
0
0
44
44
44
56
56
56
124
124
124
112
112
112
84
84
84
72
72
72
100
100
100
72
72
72
84
84
84
84
84
84
100
100
100
72
72
72
0
0
0
140
140
140
84
84
84
72
72
72
84
84
84
100
100
100
84
84
84
100
100
100
72
72
72
56
56
56
44
44
44
0
0
0
0
0
0
44
44
44
100
100
100
140
140
140
100
100
100
100
100
100
100
100
100
84
84
84
72
72
72
56
56
56
72
72
72
56
56
56
64
64
64
84
84
84
72
72
72
72
72
72
32
32
32
0
0
0
0
0
0
32
32
32
72
72
72
112
112
112
100
100
100
100
100
100
84
84
84
44
44
44
0
0
0
32
32
32
124
124
124
100
100
100
100
100
100
84
84
84
84
84
84
100
100
100
100
100
100
84
84
84
100
100
100
84
84
84
56
56
56
0
0
0
32
32
32
56
56
56
124
124
124
100
100
100
84
84
84
100
100
100
84
84
84
100
100
100
100
100
100
56
56
56
100
100
100
44
44
44
0
0
0
124
124
124
100
100
100
100
100
100
100
100
100
84
84
84
72
72
72
84
84
84
100
100
100
56
56
56
44
44
44
0
0
0
0
0
0
44
44
44
72
72
72
140
140
140
124
124
124
100
100
100
72
72
72
100
100
100
84
84
84
72
72
72
84
84
84
72
72
72
84
84
84
72
72
72
84
84
84
56
56
56
32
32
32
0
0
0
0
0
0
32
32
32
72
72
72
112
112
112
100
100
100
84
84
84
100
100
100
44
44
44
0
0
0
32
32
32
112
112
112
100
100
100
84
84
84
100
100
100
92
92
92
72
72
72
72
72
72
72
72
72
84
84
84
100
100
100
56
56
56
0
0
0
32
32
32
56
56
56
124
124
124
112
112
112
100
100
100
84
84
84
84
84
84
100
100
100
84
84
84
100
100
100
72
72
72
44
44
44
0
0
0
124
124
124
124
124
124
76
76
76
84
84
84
56
56
56
100
100
100
100
100
100
84
84
84
56
56
56
44
44
44
0
0
0
0
0
0
32
32
32
72
72
72
112
112
112
124
124
124
100
100
100
72
72
72
56
56
56
84
84
84
84
84
84
72
72
72
84
84
84
72
72
72
84
84
84
72
72
72
56
56
56
0
0
0
0
0
0
0
0
0
32
32
32
72
72
72
112
112
112
84
84
84
100
100
100
44
44
44
44
44
44
0
0
0
32
32
32
124
124
124
100
100
100
72
72
72
84
84
84
72
72
72
72
72
72
84
84
84
72
72
72
72
72
72
100
100
100
44
44
44
0
0
0
32
32
32
56
56
56
124
124
124
112
112
112
72
72
72
100
100
100
100
100
100
84
84
84
100
100
100
72
72
72
84
84
84
44
44
44
0
0
0
124
124
124
124
124
124
72
72
72
84
84
84
100
100
100
72
72
72
84
84
84
72
72
72
56
56
56
44
44
44
0
0
0
0
0
0
32
32
32
44
44
44
112
112
112
124
124
124
100
100
100
72
72
72
100
100
100
84
84
84
100
100
100
84
84
84
84
84
84
72
72
72
72
72
72
56
56
56
44
44
44
0
0
0
0
0
0
0
0
0
32
32
32
56
56
56
100
100
100
56
56
56
44
44
44
0
0
0
0
0
0
0
0
0
32
32
32
100
100
100
100
100
100
72
72
72
100
100
100
84
84
84
92
92
92
100
100
100
84
84
84
72
72
72
84
84
84
44
44
44
0
0
0
0
0
0
56
56
56
124
124
124
112
112
112
100
100
100
100
100
100
84
84
84
84
84
84
84
84
84
100
100
100
84
84
84
44
44
44
0
0
0
112
112
112
124
124
124
76
76
76
100
100
100
72
72
72
72
72
72
72
72
72
100
100
100
72
72
72
44
44
44
0
0
0
0
0
0
0
0
0
44
44
44
72
72
72
124
124
124
100
100
100
72
72
72
56
56
56
56
56
56
56
56
56
44
44
44
32
32
32
32
32
32
0
0
0
0
0
0
0
0
0
0
0
0
0
0
0
0
0
0
32
32
32
44
44
44
0
0
0
0
0
0
0
0
0
0
0
0
32
32
32
32
32
32
0
0
0
72
72
72
44
44
44
32
32
32
44
44
44
44
44
44
44
44
44
44
44
44
44
44
44
44
44
44
44
44
44
44
44
44
0
0
0
0
0
0
56
56
56
124
124
124
112
112
112
84
84
84
100
100
100
100
100
100
84
84
84
84
84
84
56
56
56
84
84
84
44
44
44
0
0
0
84
84
84
124
124
124
84
84
84
76
76
76
100
100
100
100
100
100
72
72
72
72
72
72
72
72
72
44
44
44
0
0
0
0
0
0
0
0
0
44
44
44
32
32
32
72
72
72
72
72
72
56
56
56
44
44
44
32
32
32
0
0
0
0
0
0
0
0
0
0
0
0
0
0
0
0
0
0
0
0
0
0
0
0
0
0
0
0
0
0
32
32
32
44
44
44
32
32
32
32
32
32
44
44
44
44
44
44
44
44
44
44
44
44
44
44
44
0
0
0
0
0
0
0
0
0
0
0
0
0
0
0
0
0
0
0
0
0
0
0
0
0
0
0
0
0
0
0
0
0
0
0
0
0
0
0
56
56
56
124
124
124
112
112
112
72
72
72
84
84
84
92
92
92
100
100
100
72
72
72
100
100
100
72
72
72
44
44
44
0
0
0
56
56
56
124
124
124
100
100
100
84
84
84
100
100
100
92
92
92
72
72
72
100
100
100
56
56
56
44
44
44
0
0
0
0
0
0
0
0
0
32
32
32
32
32
32
0
0
0
0
0
0
0
0
0
0
0
0
0
0
0
0
0
0
0
0
0
0
0
0
0
0
0
0
0
0
0
0
0
0
0
0
0
0
0
0
0
0
32
32
32
32
32
32
44
44
44
44
44
44
32
32
32
32
32
32
32
32
32
32
32
32
32
32
32
32
32
32
32
32
32
32
32
32
32
32
32
0
0
0
0
0
0
0
0
0
0
0
0
0
0
0
0
0
0
0
0
0
0
0
0
0
0
0
0
0
0
56
56
56
124
124
124
112
112
112
100
100
100
100
100
100
84
84
84
92
92
92
100
100
100
92
92
92
100
100
100
44
44
44
0
0
0
44
44
44
140
140
140
76
76
76
100
100
100
92
92
92
72
72
72
100
100
100
72
72
72
56
56
56
44
44
44
0
0
0
0
0
0
0
0
0
32
32
32
32
32
32
32
32
32
0
0
0
0
0
0
0
0
0
0
0
0
0
0
0
32
32
32
32
32
32
32
32
32
32
32
32
32
32
32
32
32
32
32
32
32
32
32
32
32
32
32
32
32
32
44
44
44
44
44
44
56
56
56
56
56
56
56
56
56
56
56
56
56
56
56
56
56
56
56
56
56
56
56
56
56
56
56
56
56
56
56
56
56
56
56
56
56
56
56
56
56
56
56
56
56
56
56
56
56
56
56
0
0
0
44
44
44
56
56
56
124
124
124
112
112
112
72
72
72
92
92
92
100
100
100
84
84
84
100
100
100
84
84
84
72
72
72
44
44
44
0
0
0
32
32
32
140
140
140
100
100
100
76
76
76
76
76
76
84
84
84
72
72
72
100
100
100
72
72
72
44
44
44
0
0
0
0
0
0
0
0
0
0
0
0
56
56
56
56
56
56
56
56
56
56
56
56
56
56
56
56
56
56
56
56
56
56
56
56
56
56
56
56
56
56
56
56
56
56
56
56
56
56
56
56
56
56
72
72
72
72
72
72
84
84
84
84
84
84
100
100
100
112
112
112
112
112
112
124
124
124
124
124
124
124
124
124
124
124
124
124
124
124
124
124
124
112
112
112
124
124
124
124
124
124
124
124
124
124
124
124
124
124
124
124
124
124
124
124
124
56
56
56
0
0
0
44
44
44
56
56
56
112
112
112
112
112
112
100
100
100
100
100
100
84
84
84
100
100
100
84
84
84
100
100
100
44
44
44
0
0
0
0
0
0
32
32
32
140
140
140
100
100
100
92
92
92
100
100
100
72
72
72
72
72
72
72
72
72
56
56
56
44
44
44
0
0
0
0
0
0
0
0
0
0
0
0
56
56
56
124
124
124
124
124
124
124
124
124
124
124
124
124
124
124
124
124
124
124
124
124
124
124
124
124
124
124
124
124
124
124
124
124
124
124
124
124
124
124
124
124
124
124
124
124
112
112
112
124
124
124
124
124
124
140
140
140
140
140
140
140
140
140
140
140
140
140
140
140
140
140
140
140
140
140
140
140
140
140
140
140
140
140
140
140
140
140
124
124
124
124
124
124
112
112
112
112
112
112
84
84
84
56
56
56
0
0
0
32
32
32
56
56
56
112
112
112
112
112
112
84
84
84
100
100
100
72
72
72
100
100
100
100
100
100
72
72
72
44
44
44
0
0
0
0
0
0
32
32
32
140
140
140
72
72
72
100
100
100
56
56
56
84
84
84
72
72
72
100
100
100
56
56
56
44
44
44
0
0
0
0
0
0
0
0
0
0
0
0
56
56
56
124
124
124
112
112
112
140
140
140
140
140
140
140
140
140
140
140
140
140
140
140
140
140
140
124
124
124
140
140
140
140
140
140
124
124
124
140
140
140
140
140
140
140
140
140
140
140
140
140
140
140
140
140
140
124
124
124
124
124
124
112
112
112
124
124
124
112
112
112
124
124
124
124
124
124
124
124
124
100
100
100
124
124
124
124
124
124
112
112
112
124
124
124
124
124
124
112
112
112
56
56
56
44
44
44
0
0
0
32
32
32
56
56
56
124
124
124
112
112
112
100
100
100
72
72
72
100
100
100
72
72
72
72
72
72
72
72
72
44
44
44
0
0
0
0
0
0
32
32
32
124
124
124
100
100
100
100
100
100
72
72
72
100
100
100
72
72
72
72
72
72
56
56
56
44
44
44
0
0
0
0
0
0
0
0
0
0
0
0
56
56
56
124
124
124
112
112
112
112
112
112
124
124
124
124
124
124
124
124
124
124
124
124
124
124
124
100
100
100
124
124
124
124
124
124
100
100
100
124
124
124
124
124
124
124
124
124
112
112
112
112
112
112
100
100
100
84
84
84
84
84
84
72
72
72
84
84
84
100
100
100
84
84
84
100
100
100
84
84
84
72
72
72
84
84
84
100
100
100
84
84
84
100
100
100
92
92
92
100
100
100
72
72
72
44
44
44
0
0
0
0
0
0
32
32
32
124
124
124
72
72
72
72
72
72
100
100
100
72
72
72
72
72
72
72
72
72
72
72
72
44
44
44
0
0
0
0
0
0
32
32
32
112
112
112
72
72
72
72
72
72
100
100
100
72
72
72
100
100
100
72
72
72
72
72
72
44
44
44
0
0
0
0
0
0
0
0
0
0
0
0
56
56
56
124
124
124
124
124
124
112
112
112
72
72
72
72
72
72
72
72
72
84
84
84
72
72
72
84
84
84
100
100
100
84
84
84
100
100
100
100
100
100
84
84
84
72
72
72
84
84
84
100
100
100
100
100
100
100
100
100
92
92
92
64
64
64
92
92
92
84
84
84
100
100
100
100
100
100
84
84
84
72
72
72
100
100
100
84
84
84
100
100
100
100
100
100
100
100
100
92
92
92
72
72
72
44
44
44
0
0
0
0
0
0
32
32
32
112
112
112
100
100
100
100
100
100
100
100
100
72
72
72
44
44
44
44
44
44
44
44
44
0
0
0
0
0
0
0
0
0
32
32
32
112
112
112
100
100
100
72
72
72
72
72
72
100
100
100
72
72
72
72
72
72
72
72
72
44
44
44
0
0
0
0
0
0
0
0
0
0
0
0
32
32
32
124
124
124
124
124
124
124
124
124
72
72
72
84
84
84
72
72
72
100
100
100
84
84
84
100
100
100
84
84
84
84
84
84
100
100
100
72
72
72
72
72
72
84
84
84
100
100
100
100
100
100
72
72
72
84
84
84
72
72
72
84
84
84
92
92
92
72
72
72
64
64
64
84
84
84
84
84
84
84
84
84
92
92
92
100
100
100
92
92
92
100
100
100
84
84
84
100
100
100
72
72
72
44
44
44
0
0
0
0
0
0
32
32
32
56
56
56
56
56
56
56
56
56
44
44
44
44
44
44
44
44
44
44
44
44
44
44
44
0
0
0
0
0
0
0
0
0
32
32
32
84
84
84
84
84
84
100
100
100
72
72
72
72
72
72
72
72
72
72
72
72
56
56
56
44
44
44
0
0
0
0
0
0
0
0
0
0
0
0
0
0
0
112
112
112
124
124
124
112
112
112
100
100
100
100
100
100
84
84
84
72
72
72
84
84
84
72
72
72
64
64
64
72
72
72
72
72
72
100
100
100
72
72
72
84
84
84
72
72
72
100
100
100
84
84
84
64
64
64
72
72
72
92
92
92
100
100
100
84
84
84
72
72
72
100
100
100
72
72
72
64
64
64
64
64
64
100
100
100
56
56
56
84
84
84
72
72
72
84
84
84
72
72
72
44
44
44
0
0
0
0
0
0
32
32
32
0
0
0
0
0
0
0
0
0
0
0
0
44
44
44
44
44
44
44
44
44
44
44
44
0
0
0
0
0
0
32
32
32
32
32
32
56
56
56
56
56
56
56
56
56
56
56
56
56
56
56
56
56
56
56
56
56
44
44
44
44
44
44
0
0
0
0
0
0
0
0
0
0
0
0
0
0
0
100
100
100
124
124
124
112
112
112
84
84
84
84
84
84
100
100
100
92
92
92
100
100
100
92
92
92
72
72
72
100
100
100
72
72
72
64
64
64
64
64
64
84
84
84
84
84
84
72
72
72
100
100
100
72
72
72
100
100
100
84
84
84
92
92
92
100
100
100
84
84
84
72
72
72
56
56
56
84
84
84
72
72
72
72
72
72
100
100
100
72
72
72
56
56
56
56
56
56
72
72
72
44
44
44
0
0
0
0
0
0
44
44
44
44
44
44
44
44
44
32
32
32
0
0
0
0
0
0
0
0
0
0
0
0
0
0
0
0
0
0
0
0
0
32
32
32
0
0
0
0
0
0
0
0
0
0
0
0
0
0
0
0
0
0
0
0
0
0
0
0
0
0
0
0
0
0
0
0
0
0
0
0
0
0
0
0
0
0
0
0
0
72
72
72
112
112
112
112
112
112
112
112
112
84
84
84
84
84
84
100
100
100
92
92
92
100
100
100
64
64
64
72
72
72
72
72
72
84
84
84
64
64
64
84
84
84
72
72
72
84
84
84
56
56
56
100
100
100
72
72
72
72
72
72
56
56
56
84
84
84
72
72
72
84
84
84
72
72
72
100
100
100
84
84
84
56
56
56
72
72
72
84
84
84
56
56
56
56
56
56
72
72
72
44
44
44
0
0
0
0
0
0
32
32
32
32
32
32
32
32
32
32
32
32
32
32
32
32
32
32
32
32
32
0
0
0
0
0
0
0
0
0
0
0
0
32
32
32
0
0
0
0
0
0
0
0
0
0
0
0
0
0
0
0
0
0
0
0
0
0
0
0
0
0
0
0
0
0
0
0
0
0
0
0
0
0
0
0
0
0
0
0
0
72
72
72
84
84
84
84
84
84
84
84
84
72
72
72
72
72
72
72
72
72
72
72
72
84
84
84
100
100
100
84
84
84
100
100
100
100
100
100
72
72
72
72
72
72
56
56
56
72
72
72
72
72
72
72
72
72
56
56
56
72
72
72
72
72
72
100
100
100
84
84
84
100
100
100
84
84
84
84
84
84
100
100
100
84
84
84
72
72
72
72
72
72
72
72
72
84
84
84
72
72
72
44
44
44
0
0
0
0
0
0
32
32
32
56
56
56
100
100
100
100
100
100
100
100
100
100
100
100
84
84
84
72
72
72
56
56
56
32
32
32
32
32
32
44
44
44
0
0
0
0
0
0
0
0
0
0
0
0
0
0
0
0
0
0
0
0
0
0
0
0
0
0
0
0
0
0
0
0
0
0
0
0
0
0
0
0
0
0
0
0
0
44
44
44
32
32
32
0
0
0
0
0
0
0
0
0
0
0
0
32
32
32
32
32
32
32
32
32
44
44
44
72
72
72
72
72
72
56
56
56
56
56
56
56
56
56
56
56
56
56
56
56
56
56
56
56
56
56
56
56
56
56
56
56
56
56
56
56
56
56
56
56
56
56
56
56
56
56
56
56
56
56
56
56
56
56
56
56
56
56
56
56
56
56
56
56
56
56
56
56
56
56
56
44
44
44
0
0
0
0
0
0
32
32
32
100
100
100
124
124
124
124
124
124
124
124
124
124
124
124
124
124
124
124
124
124
124
124
124
100
100
100
100
100
100
72
72
72
72
72
72
56
56
56
44
44
44
32
32
32
0
0
0
0
0
0
0
0
0
0
0
0
0
0
0
0
0
0
0
0
0
0
0
0
0
0
0
0
0
0
32
32
32
44
44
44
32
32
32
32
32
32
0
0
0
0
0
0
0
0
0
0
0
0
0
0
0
0
0
0
0
0
0
32
32
32
44
44
44
44
44
44
44
44
44
44
44
44
44
44
44
44
44
44
44
44
44
44
44
44
44
44
44
44
44
44
44
44
44
44
44
44
44
44
44
44
44
44
44
44
44
44
44
44
44
44
44
44
44
44
44
44
44
44
44
44
44
44
44
44
44
44
44
44
44
32
32
32
0
0
0
0
0
0
32
32
32
100
100
100
124
124
124
100
100
100
100
100
100
72
72
72
124
124
124
112
112
112
124
124
124
124
124
124
124
124
124
124
124
124
100
100
100
100
100
100
100
100
100
100
100
100
100
100
100
100
100
100
100
100
100
100
100
100
72
72
72
72
72
72
72
72
72
56
56
56
56
56
56
72
72
72
56
56
56
56
56
56
44
44
44
44
44
44
32
32
32
32
32
32
32
32
32
32
32
32
32
32
32
0
0
0
0
0
0
0
0
0
0
0
0
32
32
32
32
32
32
32
32
32
32
32
32
32
32
32
32
32
32
32
32
32
32
32
32
32
32
32
32
32
32
32
32
32
32
32
32
32
32
32
32
32
32
32
32
32
32
32
32
32
32
32
32
32
32
32
32
32
32
32
32
32
32
32
32
32
32
0
0
0
0
0
0
32
32
32
32
32
32
100
100
100
124
124
124
100
100
100
100
100
100
100
100
100
112
112
112
112
112
112
72
72
72
100
100
100
124
124
124
124
124
124
124
124
124
124
124
124
124
124
124
124
124
124
124
124
124
124
124
124
124
124
124
124
124
124
124
124
124
124
124
124
124
124
124
112
112
112
112
112
112
124
124
124
124
124
124
100
100
100
100
100
100
100
100
100
100
100
100
100
100
100
72
72
72
32
32
32
44
44
44
32
32
32
0
0
0
0
0
0
0
0
0
0
0
0
0
0
0
0
0
0
0
0
0
0
0
0
0
0
0
0
0
0
0
0
0
0
0
0
0
0
0
0
0
0
0
0
0
0
0
0
0
0
0
0
0
0
0
0
0
0
0
0
0
0
0
0
0
0
0
0
0
0
0
0
0
0
0
0
0
0
32
32
32
32
32
32
32
32
32
100
100
100
124
124
124
100
100
100
92
92
92
72
72
72
56
56
56
84
84
84
100
100
100
84
84
84
72
72
72
56
56
56
100
100
100
72
72
72
100
100
100
72
72
72
100
100
100
72
72
72
100
100
100
100
100
100
72
72
72
100
100
100
84
84
84
100
100
100
100
100
100
112
112
112
124
124
124
124
124
124
124
124
124
124
124
124
112
112
112
124
124
124
56
56
56
0
0
0
32
32
32
44
44
44
32
32
32
32
32
32
32
32
32
0
0
0
0
0
0
0
0
0
0
0
0
0
0
0
0
0
0
0
0
0
0
0
0
0
0
0
0
0
0
0
0
0
0
0
0
0
0
0
0
0
0
0
0
0
0
0
0
0
0
0
0
0
0
0
0
0
0
0
0
0
0
0
32
32
32
32
32
32
32
32
32
44
44
44
32
32
32
100
100
100
112
112
112
100
100
100
100
100
100
92
92
92
72
72
72
72
72
72
92
92
92
84
84
84
72
72
72
84
84
84
100
100
100
72
72
72
72
72
72
100
100
100
84
84
84
56
56
56
72
72
72
100
100
100
56
56
56
84
84
84
72
72
72
84
84
84
100
100
100
72
72
72
100
100
100
84
84
84
100
100
100
100
100
100
100
100
100
56
56
56
56
56
56
0
0
0
0
0
0
44
44
44
32
32
32
100
100
100
124
124
124
124
124
124
100
100
100
56
56
56
32
32
32
32
32
32
32
32
32
44
44
44
44
44
44
44
44
44
32
32
32
32
32
32
32
32
32
32
32
32
32
32
32
32
32
32
32
32
32
32
32
32
32
32
32
32
32
32
32
32
32
32
32
32
44
44
44
44
44
44
44
44
44
44
44
44
32
32
32
100
100
100
124
124
124
100
100
100
72
72
72
92
92
92
56
56
56
56
56
56
84
84
84
100
100
100
72
72
72
100
100
100
100
100
100
84
84
84
72
72
72
56
56
56
84
84
84
56
56
56
72
72
72
56
56
56
84
84
84
72
72
72
100
100
100
72
72
72
84
84
84
84
84
84
100
100
100
84
84
84
84
84
84
100
100
100
100
100
100
56
56
56
44
44
44
0
0
0
0
0
0
32
32
32
32
32
32
124
124
124
100
100
100
100
100
100
124
124
124
124
124
124
124
124
124
124
124
124
112
112
112
44
44
44
44
44
44
32
32
32
84
84
84
124
124
124
124
124
124
124
124
124
124
124
124
124
124
124
124
124
124
124
124
124
112
112
112
124
124
124
112
112
112
84
84
84
56
56
56
32
32
32
32
32
32
44
44
44
32
32
32
100
100
100
72
72
72
56
56
56
56
56
56
56
56
56
56
56
56
56
56
56
56
56
56
56
56
56
56
56
56
56
56
56
56
56
56
56
56
56
56
56
56
56
56
56
56
56
56
56
56
56
56
56
56
56
56
56
56
56
56
56
56
56
56
56
56
56
56
56
56
56
56
56
56
56
56
56
56
56
56
56
56
56
56
56
56
56
56
56
56
44
44
44
32
32
32
0
0
0
0
0
0
0
0
0
32
32
32
124
124
124
112
112
112
112
112
112
112
112
112
112
112
112
112
112
112
112
112
112
112
112
112
56
56
56
44
44
44
56
56
56
124
124
124
100
100
100
100
100
100
92
92
92
72
72
72
92
92
92
72
72
72
92
92
92
84
84
84
100
100
100
72
72
72
100
100
100
124
124
124
84
84
84
0
0
0
44
44
44
32
32
32
72
72
72
56
56
56
32
32
32
32
32
32
32
32
32
32
32
32
32
32
32
32
32
32
32
32
32
32
32
32
32
32
32
32
32
32
32
32
32
32
32
32
32
32
32
32
32
32
32
32
32
32
32
32
32
32
32
32
32
32
32
32
32
32
32
32
32
32
32
32
32
32
32
32
32
32
32
32
32
32
32
32
32
32
32
32
32
32
32
32
32
32
32
32
32
32
0
0
0
0
0
0
0
0
0
32
32
32
112
112
112
100
100
100
112
112
112
112
112
112
84
84
84
112
112
112
84
84
84
72
72
72
56
56
56
32
32
32
112
112
112
100
100
100
72
72
72
92
92
92
72
72
72
92
92
92
92
92
92
92
92
92
72
72
72
100
100
100
72
72
72
100
100
100
72
72
72
100
100
100
44
44
44
0
0
0
44
44
44
32
32
32
0
0
0
0
0
0
0
0
0
0
0
0
0
0
0
0
0
0
0
0
0
0
0
0
0
0
0
0
0
0
0
0
0
0
0
0
0
0
0
0
0
0
0
0
0
0
0
0
0
0
0
0
0
0
0
0
0
0
0
0
0
0
0
0
0
0
0
0
0
0
0
0
0
0
0
0
0
0
0
0
0
0
0
0
0
0
0
0
0
0
0
0
0
0
0
0
0
0
0
0
0
0
0
0
0
32
32
32
0
0
0
32
32
32
0
0
0
44
44
44
44
44
44
56
56
56
56
56
56
56
56
56
56
56
56
32
32
32
124
124
124
100
100
100
84
84
84
84
84
84
100
100
100
100
100
100
84
84
84
92
92
92
100
100
100
92
92
92
92
92
92
100
100
100
72
72
72
72
72
72
44
44
44
0
0
0
44
44
44
44
44
44
32
32
32
0
0
0
0
0
0
0
0
0
0
0
0
0
0
0
0
0
0
0
0
0
0
0
0
0
0
0
0
0
0
0
0
0
0
0
0
0
0
0
0
0
0
0
0
0
0
0
0
0
0
0
0
0
0
0
0
0
0
0
0
0
0
0
0
0
0
0
0
0
0
0
0
0
0
0
0
0
0
0
0
0
0
0
0
0
0
0
0
0
0
0
0
0
0
0
0
0
0
0
0
0
0
0
0
0
44
44
44
44
44
44
32
32
32
0
0
0
0
0
0
0
0
0
0
0
0
0
0
0
0
0
0
0
0
0
44
44
44
44
44
44
44
44
44
44
44
44
44
44
44
44
44
44
44
44
44
44
44
44
44
44
44
44
44
44
44
44
44
44
44
44
44
44
44
44
44
44
44
44
44
0
0
0
44
44
44
44
44
44
44
44
44
44
44
44
44
44
44
32
32
32
32
32
32
32
32
32
32
32
32
32
32
32
32
32
32
32
32
32
32
32
32
0
0
0
0
0
0
0
0
0
0
0
0
0
0
0
0
0
0
0
0
0
0
0
0
0
0
0
0
0
0
0
0
0
0
0
0
0
0
0
0
0
0
0
0
0
0
0
0
0
0
0
0
0
0
0
0
0
0
0
0
0
0
0
0
0
0
0
0
0
0
0
0
0
0
0
44
44
44
44
44
44
44
44
44
32
32
32
32
32
32
0
0
0
0
0
0
0
0
0
0
0
0
0
0
0
44
44
44
44
44
44
0
0
0
0
0
0
0
0
0
0
0
0
0
0
0
0
0
0
0
0
0
0
0
0
0
0
0
0
0
0
0
0
0
0
0
0
0
0
0
0
0
0
44
44
44
56
56
56
56
56
56
56
56
56
56
56
56
56
56
56
56
56
56
56
56
56
56
56
56
56
56
56
56
56
56
56
56
56
56
56
56
56
56
56
56
56
56
56
56
56
56
56
56
56
56
56
56
56
56
56
56
56
56
56
56
56
56
56
56
56
56
56
56
56
56
56
56
56
56
56
56
56
56
56
56
56
56
56
56
56
56
56
56
56
56
56
56
56
56
56
56
56
56
56
56
56
56
56
56
56
56
56
56
56
56
56
56
56
56
56
56
56
56
56
56
56
56
56
56
56
56
56
56
56
56
56
56
56
56
56
56
56
56
56
56
56
56
56
56
56
56
56
56
56
56
56
56
56
56
56
56
56
56
56
56
56
56
56
56
56
56
56
56
56
56
56
56
56
56
56
56
56
56
56
56
56
56
56
56
56
56
56
56
56
56
56
56
